<?xml version="1.0" encoding="UTF-8"?>
<!DOCTYPE svg PUBLIC "-//W3C//DTD SVG 1.1//EN" "http://www.w3.org/Graphics/SVG/1.1/DTD/svg11.dtd">
<svg xmlns="http://www.w3.org/2000/svg" version="1.1" width="1856px" height="284px" style="shape-rendering:geometricPrecision; text-rendering:geometricPrecision; image-rendering:optimizeQuality; fill-rule:evenodd; clip-rule:evenodd" xmlns:xlink="http://www.w3.org/1999/xlink">
<g><path style="opacity:1" fill="#fefefe" d="M -0.5,-0.5 C 618.167,-0.5 1236.83,-0.5 1855.5,-0.5C 1855.5,94.1667 1855.5,188.833 1855.5,283.5C 1236.83,283.5 618.167,283.5 -0.5,283.5C -0.5,188.833 -0.5,94.1667 -0.5,-0.5 Z"/></g>
<g><path style="opacity:1" fill="#555555" d="M 59.5,12.5 C 54.2313,11.0127 48.898,10.1794 43.5,10C 45.9962,11.0804 48.3295,12.4138 50.5,14C 51.6956,14.6543 51.6956,15.1543 50.5,15.5C 35.9015,9.472 21.2349,9.13866 6.5,14.5C 9.24516,11.9624 12.5785,10.4624 16.5,10C 24.7773,9.03196 32.9439,9.53196 41,11.5C 41.5,11.3333 42,11.1667 42.5,11C 39.9109,9.80348 37.2442,8.80348 34.5,8C 43.3734,7.14402 51.7067,8.64402 59.5,12.5 Z"/></g>
<g><path style="opacity:1" fill="#434343" d="M 96.5,23.5 C 87.2242,17.1155 77.0575,12.4488 66,9.5C 64.3164,9.68342 64.1498,10.3501 65.5,11.5C 62.91,10.8717 60.5766,9.70499 58.5,8C 73.0135,8.77883 85.6802,13.9455 96.5,23.5 Z"/></g>
<g><path style="opacity:1" fill="#fbfbfb" d="M 59.5,12.5 C 60.7804,13.9313 62.4471,14.5979 64.5,14.5C 66.1815,16.0075 68.1815,17.0075 70.5,17.5C 72.1815,19.0075 74.1815,20.0075 76.5,20.5C 79.2624,22.7247 82.2624,24.7247 85.5,26.5C 85.8333,26.3333 86.1667,26.1667 86.5,26C 84.1364,24.1581 81.8031,22.3247 79.5,20.5C 76.1967,16.8442 72.1967,14.1775 67.5,12.5C 66.5084,12.6716 65.8417,12.3382 65.5,11.5C 64.1498,10.3501 64.3164,9.68342 66,9.5C 77.0575,12.4488 87.2242,17.1155 96.5,23.5C 97.5846,25.5869 99.2512,26.9202 101.5,27.5C 102.793,29.2959 104.293,30.9625 106,32.5C 106.238,30.0441 105.404,28.0441 103.5,26.5C 103.141,24.629 102.141,23.129 100.5,22C 101.819,21.805 103.153,21.9717 104.5,22.5C 104.973,23.9063 105.973,24.573 107.5,24.5C 109.5,27.1667 111.833,29.5 114.5,31.5C 114.738,33.4044 115.738,34.7377 117.5,35.5C 121.186,42.8721 124.853,50.2054 128.5,57.5C 130.96,66.342 132.626,75.342 133.5,84.5C 132.358,93.9999 131.025,103.333 129.5,112.5C 124.127,107.391 118.627,102.391 113,97.5C 113.492,94.1504 114.325,90.817 115.5,87.5C 113.858,90.1025 112.192,92.7692 110.5,95.5C 104.097,90.0846 97.7641,84.7513 91.5,79.5C 92.7266,73.8678 93.8932,68.2011 95,62.5C 95.6667,56.1667 95.6667,49.8333 95,43.5C 95.5591,55.3623 93.7258,66.6957 89.5,77.5C 85.2557,75.3995 81.9223,72.3995 79.5,68.5C 82.1329,61.1584 82.9662,53.4918 82,45.5C 81.5644,53.3286 80.3978,60.9952 78.5,68.5C 78.5654,68.9382 78.3988,69.2716 78,69.5C 74.6425,66.9688 71.4758,64.3021 68.5,61.5C 69.5139,52.5226 69.6806,43.5226 69,34.5C 68.6667,41.1667 68.3333,47.8333 68,54.5C 67.9504,56.744 67.1171,58.4107 65.5,59.5C 62.1897,57.5179 59.1897,55.1846 56.5,52.5C 57.29,51.3915 57.79,50.0581 58,48.5C 58.6667,43.1667 58.6667,37.8333 58,32.5C 57.6667,37.5 57.3333,42.5 57,47.5C 56.8784,49.437 56.045,50.7703 54.5,51.5C 52.7697,50.9744 51.4363,49.9744 50.5,48.5C 52.2892,42.9842 52.7892,37.3176 52,31.5C 51.6621,36.5465 50.9954,41.5465 50,46.5C 49.6174,47.056 49.1174,47.3893 48.5,47.5C 46.7376,46.7377 45.7376,45.4044 45.5,43.5C 44.8826,43.6107 44.3826,43.944 44,44.5C 41.0937,41.9627 37.927,39.796 34.5,38C 33.6198,36.6439 33.2865,35.1439 33.5,33.5C 34.6943,29.6113 34.5277,25.6113 33,21.5C 32.5014,25.1516 32.3347,28.8183 32.5,32.5C 32.719,33.675 32.3857,34.675 31.5,35.5C 30.5832,34.8728 29.5832,34.5394 28.5,34.5C 26.39,30.8139 25.0567,30.6473 24.5,34C 22.8333,34.3333 21.1667,34.6667 19.5,35C 22.4816,35.498 25.4816,35.6646 28.5,35.5C 30.487,36.1642 32.1537,37.3308 33.5,39C 32.5,39.3333 31.5,39.6667 30.5,40C 35.4412,40.5896 39.7745,42.5896 43.5,46C 41.1902,46.4966 38.8568,46.6633 36.5,46.5C 31.8276,45.9973 27.1609,45.8306 22.5,46C 27.1016,47.1224 31.7682,47.6224 36.5,47.5C 39.5184,47.3354 42.5184,47.502 45.5,48C 50.6611,51.6659 55.6611,55.4992 60.5,59.5C 53.0113,60.6557 45.3446,60.8223 37.5,60C 32.4536,58.8178 27.4536,57.8178 22.5,57C 36.0648,61.8772 50.0648,63.7105 64.5,62.5C 67.0026,64.8327 69.6693,66.9993 72.5,69C 64.1667,69.3333 55.8333,69.6667 47.5,70C 56.8333,70.3333 66.1667,70.6667 75.5,71C 81.5,76.3333 87.5,81.6667 93.5,87C 91.8659,87.4935 90.1992,87.6602 88.5,87.5C 77.5582,85.924 66.5582,85.0907 55.5,85C 66.4818,86.4315 77.4818,87.5981 88.5,88.5C 91.1873,88.3359 93.854,88.5026 96.5,89C 101.532,94.3665 106.865,99.3665 112.5,104C 108.267,103.327 103.933,102.827 99.5,102.5C 96.5508,101.931 93.5508,101.598 90.5,101.5C 82.1431,102.393 73.8098,103.393 65.5,104.5C 60.8205,104.249 56.1538,103.916 51.5,103.5C 48.3223,101.991 44.9889,100.658 41.5,99.5C 41.0269,98.0937 40.0269,97.427 38.5,97.5C 37.4154,95.4131 35.7488,94.0798 33.5,93.5C 31.1667,90.5 28.5,87.8333 25.5,85.5C 24.9202,83.2512 23.5869,81.5846 21.5,80.5C 21.2624,78.5956 20.2624,77.2623 18.5,76.5C 17.6597,74.1475 16.3264,72.1475 14.5,70.5C 14.4701,69.5028 14.9701,68.8361 16,68.5C 22.0195,70.5505 28.1862,71.3839 34.5,71C 26.952,68.89 19.952,65.7233 13.5,61.5C 12.1667,59.5 10.5,57.8333 8.5,56.5C 7.65974,54.1475 6.3264,52.1475 4.5,50.5C 2.567,45.3356 1.73367,40.0023 2,34.5C 4.77897,37.2969 7.94563,39.1302 11.5,40C 9.62658,38.2962 7.95991,36.4628 6.5,34.5C 3.8799,27.8651 3.8799,21.1984 6.5,14.5C 21.2349,9.13866 35.9015,9.472 50.5,15.5C 51.6956,15.1543 51.6956,14.6543 50.5,14C 48.3295,12.4138 45.9962,11.0804 43.5,10C 48.898,10.1794 54.2313,11.0127 59.5,12.5 Z"/></g>
<g><path style="opacity:1" fill="#4d4d4d" d="M 59.5,12.5 C 61.5529,12.4021 63.2196,13.0687 64.5,14.5C 62.4471,14.5979 60.7804,13.9313 59.5,12.5 Z"/></g>
<g><path style="opacity:1" fill="#404040" d="M 64.5,14.5 C 65.5,14.5 66.5,14.5 67.5,14.5C 68.6935,15.2719 69.6935,16.2719 70.5,17.5C 68.1815,17.0075 66.1815,16.0075 64.5,14.5 Z"/></g>
<g><path style="opacity:1" fill="#808080" d="M 67.5,12.5 C 72.1967,14.1775 76.1967,16.8442 79.5,20.5C 78.7978,21.1157 77.7978,21.1157 76.5,20.5C 74.1815,20.0075 72.1815,19.0075 70.5,17.5C 69.6935,16.2719 68.6935,15.2719 67.5,14.5C 67.5,13.8333 67.5,13.1667 67.5,12.5 Z"/></g>
<g><path style="opacity:1" fill="#1b1b1b" d="M 99.5,19.5 C 99.1667,20.1667 98.8333,20.8333 98.5,21.5C 94.5301,20.0206 94.8634,19.3539 99.5,19.5 Z"/></g>
<g><path style="opacity:1" fill="#313131" d="M 76.5,20.5 C 77.7978,21.1157 78.7978,21.1157 79.5,20.5C 81.8031,22.3247 84.1364,24.1581 86.5,26C 86.1667,26.1667 85.8333,26.3333 85.5,26.5C 82.2624,24.7247 79.2624,22.7247 76.5,20.5 Z"/></g>
<g><path style="opacity:1" fill="#575757" d="M 104.5,22.5 C 106.027,22.427 107.027,23.0937 107.5,24.5C 105.973,24.573 104.973,23.9063 104.5,22.5 Z"/></g>
<g><path style="opacity:1" fill="#616161" d="M 6.5,14.5 C 3.8799,21.1984 3.8799,27.8651 6.5,34.5C 5.60433,35.5063 4.93767,35.5063 4.5,34.5C 2.38297,28.866 2.2163,23.1993 4,17.5C 4.37675,16.0577 5.21009,15.0577 6.5,14.5 Z"/></g>
<g><path style="opacity:1" fill="#474747" d="M 99.5,19.5 C 101.674,19.7497 103.341,20.7497 104.5,22.5C 103.153,21.9717 101.819,21.805 100.5,22C 102.141,23.129 103.141,24.629 103.5,26.5C 101.5,25.1667 99.8333,23.5 98.5,21.5C 98.8333,20.8333 99.1667,20.1667 99.5,19.5 Z"/></g>
<g><path style="opacity:1" fill="#3e3e3e" d="M 96.5,23.5 C 98.7488,24.0798 100.415,25.4131 101.5,27.5C 99.2512,26.9202 97.5846,25.5869 96.5,23.5 Z"/></g>
<g><path style="opacity:1" fill="#656565" d="M 107.5,24.5 C 110.833,25.8333 113.167,28.1667 114.5,31.5C 111.833,29.5 109.5,27.1667 107.5,24.5 Z"/></g>
<g><path style="opacity:1" fill="#333333" d="M 103.5,26.5 C 105.404,28.0441 106.238,30.0441 106,32.5C 104.293,30.9625 102.793,29.2959 101.5,27.5C 102.492,27.6716 103.158,27.3382 103.5,26.5 Z"/></g>
<g><path style="opacity:1" fill="#ababab" d="M 33.5,33.5 C 33.5,32.8333 33.1667,32.5 32.5,32.5C 32.3347,28.8183 32.5014,25.1516 33,21.5C 34.5277,25.6113 34.6943,29.6113 33.5,33.5 Z"/></g>
<g><path style="opacity:1" fill="#464646" d="M 133.5,40.5 C 131.203,38.7059 129.037,36.7059 127,34.5C 127.776,37.4233 128.609,40.4233 129.5,43.5C 126.357,38.2078 123.524,32.8744 121,27.5C 126.065,31.0632 130.232,35.3965 133.5,40.5 Z"/></g>
<g><path style="opacity:1" fill="#4e4e4e" d="M 142.5,39.5 C 139.64,35.6451 136.64,31.8118 133.5,28C 138.675,30.2871 143.342,33.6204 147.5,38C 144.907,37.4535 142.74,35.9535 141,33.5C 141.15,35.5056 141.65,37.5056 142.5,39.5 Z"/></g>
<g><path style="opacity:1" fill="#3a3a3a" d="M 4.5,34.5 C 4.93767,35.5063 5.60433,35.5063 6.5,34.5C 7.95991,36.4628 9.62658,38.2962 11.5,40C 7.94563,39.1302 4.77897,37.2969 2,34.5C 1.73367,40.0023 2.567,45.3356 4.5,50.5C 1.63459,46.387 0.30126,41.7203 0.5,36.5C 0.666667,34.5 0.833333,32.5 1,30.5C 1.65999,32.3237 2.82665,33.657 4.5,34.5 Z"/></g>
<g><path style="opacity:1" fill="#565656" d="M 114.5,31.5 C 116.262,32.2623 117.262,33.5956 117.5,35.5C 115.738,34.7377 114.738,33.4044 114.5,31.5 Z"/></g>
<g><path style="opacity:1" fill="#828282" d="M 28.5,34.5 C 28.5,34.8333 28.5,35.1667 28.5,35.5C 25.4816,35.6646 22.4816,35.498 19.5,35C 21.1667,34.6667 22.8333,34.3333 24.5,34C 25.0567,30.6473 26.39,30.8139 28.5,34.5 Z"/></g>
<g><path style="opacity:1" fill="#f9f9f9" d="M 133.5,40.5 C 137.174,46.505 140.841,52.505 144.5,58.5C 144.402,60.5529 145.069,62.2196 146.5,63.5C 147.878,69.9134 148.544,76.4134 148.5,83C 146.419,100.797 147.752,118.297 152.5,135.5C 148.375,133.388 146.375,130.055 146.5,125.5C 145.323,118.903 144.656,112.237 144.5,105.5C 145.064,91.396 144.23,77.396 142,63.5C 143.292,77.6064 143.792,91.6064 143.5,105.5C 143.939,112.686 143.939,119.686 143.5,126.5C 140.694,123.272 137.694,120.272 134.5,117.5C 134.5,114.167 134.5,110.833 134.5,107.5C 137.822,87.644 136.989,67.9773 132,48.5C 131.626,46.5087 130.793,44.842 129.5,43.5C 128.609,40.4233 127.776,37.4233 127,34.5C 129.037,36.7059 131.203,38.7059 133.5,40.5 Z"/></g>
<g><path style="opacity:1" fill="#7d7d7d" d="M 45.5,43.5 C 46.0293,38.1777 46.5293,32.8443 47,27.5C 47.6667,31.8333 47.6667,36.1667 47,40.5C 46.7679,41.7375 46.2679,42.7375 45.5,43.5 Z"/></g>
<g><path style="opacity:1" fill="#6d6d6d" d="M 50.5,48.5 C 49.5084,48.6716 48.8417,48.3382 48.5,47.5C 49.1174,47.3893 49.6174,47.056 50,46.5C 50.9954,41.5465 51.6621,36.5465 52,31.5C 52.7892,37.3176 52.2892,42.9842 50.5,48.5 Z"/></g>
<g><path style="opacity:1" fill="#626262" d="M 149.5,41.5 C 149.897,40.475 150.563,40.3083 151.5,41C 154.597,43.3906 156.763,46.224 158,49.5C 155.297,46.6286 152.464,43.9619 149.5,41.5 Z"/></g>
<g><path style="opacity:1" fill="#676767" d="M 56.5,52.5 C 55.5084,52.6716 54.8417,52.3382 54.5,51.5C 56.045,50.7703 56.8784,49.437 57,47.5C 57.3333,42.5 57.6667,37.5 58,32.5C 58.6667,37.8333 58.6667,43.1667 58,48.5C 57.79,50.0581 57.29,51.3915 56.5,52.5 Z"/></g>
<g><path style="opacity:1" fill="#3f3f3f" d="M 142.5,39.5 C 145.54,42.9136 147.54,46.9136 148.5,51.5C 145.992,47.8178 143.992,43.8178 142.5,39.5 Z"/></g>
<g><path style="opacity:1" fill="#969696" d="M 36.5,46.5 C 36.5,46.8333 36.5,47.1667 36.5,47.5C 31.7682,47.6224 27.1016,47.1224 22.5,46C 27.1609,45.8306 31.8276,45.9973 36.5,46.5 Z"/></g>
<g><path style="opacity:1" fill="#474747" d="M 117.5,35.5 C 122.734,41.9683 126.401,49.3016 128.5,57.5C 124.853,50.2054 121.186,42.8721 117.5,35.5 Z"/></g>
<g><path style="opacity:1" fill="#414141" d="M 133.5,40.5 C 138.789,45.4669 142.455,51.4669 144.5,58.5C 140.841,52.505 137.174,46.505 133.5,40.5 Z"/></g>
<g><path style="opacity:1" fill="#171717" d="M 32.5,32.5 C 33.1667,32.5 33.5,32.8333 33.5,33.5C 33.2865,35.1439 33.6198,36.6439 34.5,38C 37.927,39.796 41.0937,41.9627 44,44.5C 44.3826,43.944 44.8826,43.6107 45.5,43.5C 45.7376,45.4044 46.7376,46.7377 48.5,47.5C 48.8417,48.3382 49.5084,48.6716 50.5,48.5C 51.4363,49.9744 52.7697,50.9744 54.5,51.5C 54.8417,52.3382 55.5084,52.6716 56.5,52.5C 59.1897,55.1846 62.1897,57.5179 65.5,59.5C 66.2905,60.4013 67.2905,61.0679 68.5,61.5C 71.4758,64.3021 74.6425,66.9688 78,69.5C 78.3988,69.2716 78.5654,68.9382 78.5,68.5C 78.8333,68.5 79.1667,68.5 79.5,68.5C 81.9223,72.3995 85.2557,75.3995 89.5,77.5C 89.8333,78.5 90.5,79.1667 91.5,79.5C 97.7641,84.7513 104.097,90.0846 110.5,95.5C 112.192,92.7692 113.858,90.1025 115.5,87.5C 114.325,90.817 113.492,94.1504 113,97.5C 118.627,102.391 124.127,107.391 129.5,112.5C 129.833,113.5 130.5,114.167 131.5,114.5C 132.5,115.5 133.5,116.5 134.5,117.5C 137.694,120.272 140.694,123.272 143.5,126.5C 143.783,127.289 144.283,127.956 145,128.5C 145.232,127.263 145.732,126.263 146.5,125.5C 146.375,130.055 148.375,133.388 152.5,135.5C 152.842,136.338 153.508,136.672 154.5,136.5C 157.627,142.731 158.627,142.731 157.5,136.5C 159.874,143.061 163.707,148.727 169,153.5C 169.483,152.552 169.649,151.552 169.5,150.5C 170.935,152.598 172.102,154.931 173,157.5C 175.705,160.036 178.205,162.703 180.5,165.5C 181.105,167.481 182.105,167.815 183.5,166.5C 185.458,169.792 187.791,172.792 190.5,175.5C 190.783,176.289 191.283,176.956 192,177.5C 192.608,175.934 193.442,174.6 194.5,173.5C 194.526,177.981 196.193,181.647 199.5,184.5C 200.29,185.401 201.29,186.068 202.5,186.5C 206.146,190.812 210.146,194.812 214.5,198.5C 215.429,197.311 215.762,195.978 215.5,194.5C 215.833,194.5 216.167,194.5 216.5,194.5C 216.338,196.527 216.505,198.527 217,200.5C 219.667,203.167 222.333,205.833 225,208.5C 225.464,207.906 225.631,207.239 225.5,206.5C 225.833,206.5 226.167,206.5 226.5,206.5C 229.044,211.883 232.878,216.217 238,219.5C 238.464,218.906 238.631,218.239 238.5,217.5C 238.5,216.833 238.833,216.5 239.5,216.5C 239.34,218.199 239.506,219.866 240,221.5C 244.707,225.712 249.54,229.712 254.5,233.5C 254.938,234.506 255.604,234.506 256.5,233.5C 256.461,234.756 256.961,235.756 258,236.5C 258.494,234.866 258.66,233.199 258.5,231.5C 258.833,231.5 259.167,231.5 259.5,231.5C 259.337,233.857 259.503,236.19 260,238.5C 264.288,241.722 268.455,245.055 272.5,248.5C 272.833,249.5 273.5,250.167 274.5,250.5C 275.922,251.925 277.589,252.925 279.5,253.5C 286.707,259.525 294.373,265.025 302.5,270C 304.167,273.333 303.167,274.667 299.5,274C 291.833,268.333 284.167,262.667 276.5,257C 273.406,256.749 270.406,257.249 267.5,258.5C 269.221,256.306 271.555,255.139 274.5,255C 272.559,253.097 270.226,252.264 267.5,252.5C 267.918,251.778 268.584,251.278 269.5,251C 269.272,250.601 268.938,250.435 268.5,250.5C 267.365,248.787 265.698,248.12 263.5,248.5C 262.391,247.71 261.058,247.21 259.5,247C 260.833,246.667 262.167,246.333 263.5,246C 261.482,245.495 259.482,244.995 257.5,244.5C 253.617,244.109 249.95,244.776 246.5,246.5C 245.833,246.167 245.167,245.833 244.5,245.5C 242.275,247.11 239.941,248.443 237.5,249.5C 240.379,245.42 244.379,243.42 249.5,243.5C 251.527,243.662 253.527,243.495 255.5,243C 255.746,241.94 255.746,240.773 255.5,239.5C 250.349,238.833 245.349,238.166 240.5,237.5C 244.514,237.666 248.514,237.499 252.5,237C 250.679,234.863 248.346,234.03 245.5,234.5C 245.5,234.167 245.5,233.833 245.5,233.5C 246.239,233.631 246.906,233.464 247.5,233C 246.347,231.117 244.681,230.284 242.5,230.5C 243.815,229.105 243.481,228.105 241.5,227.5C 237.975,224.569 233.975,222.402 229.5,221C 233.333,220.396 233.333,219.563 229.5,218.5C 229.672,217.508 229.338,216.842 228.5,216.5C 225.396,213.899 222.396,211.066 219.5,208C 218.255,207.209 216.922,206.709 215.5,206.5C 215.715,204.821 215.048,203.821 213.5,203.5C 211.687,200.353 209.02,198.353 205.5,197.5C 206.815,196.105 206.481,195.105 204.5,194.5C 203.035,193.263 201.368,192.263 199.5,191.5C 199.573,189.973 198.906,188.973 197.5,188.5C 195.12,185.119 192.12,182.453 188.5,180.5C 188.262,178.596 187.262,177.262 185.5,176.5C 181.441,172.435 177.107,168.768 172.5,165.5C 172.672,164.508 172.338,163.842 171.5,163.5C 170.71,162.206 169.71,161.039 168.5,160C 163.613,157.726 158.946,155.226 154.5,152.5C 157.577,153.391 160.577,154.224 163.5,155C 159.765,152.147 156.098,149.313 152.5,146.5C 153.239,146.631 153.906,146.464 154.5,146C 141.338,132.838 129.004,120.504 117.5,109C 116.207,108.51 114.873,108.343 113.5,108.5C 116.1,107.031 115.767,106.031 112.5,105.5C 108.21,104.575 103.876,103.909 99.5,103.5C 99.5,103.167 99.5,102.833 99.5,102.5C 103.933,102.827 108.267,103.327 112.5,104C 106.865,99.3665 101.532,94.3665 96.5,89C 93.854,88.5026 91.1873,88.3359 88.5,88.5C 88.5,88.1667 88.5,87.8333 88.5,87.5C 90.1992,87.6602 91.8659,87.4935 93.5,87C 87.5,81.6667 81.5,76.3333 75.5,71C 66.1667,70.6667 56.8333,70.3333 47.5,70C 55.8333,69.6667 64.1667,69.3333 72.5,69C 69.6693,66.9993 67.0026,64.8327 64.5,62.5C 63.205,61.5116 61.8717,60.5116 60.5,59.5C 55.6611,55.4992 50.6611,51.6659 45.5,48C 42.5184,47.502 39.5184,47.3354 36.5,47.5C 36.5,47.1667 36.5,46.8333 36.5,46.5C 38.8568,46.6633 41.1902,46.4966 43.5,46C 39.7745,42.5896 35.4412,40.5896 30.5,40C 31.5,39.6667 32.5,39.3333 33.5,39C 32.1537,37.3308 30.487,36.1642 28.5,35.5C 28.5,35.1667 28.5,34.8333 28.5,34.5C 29.5832,34.5394 30.5832,34.8728 31.5,35.5C 32.3857,34.675 32.719,33.675 32.5,32.5 Z"/></g>
<g><path style="opacity:1" fill="#818181" d="M 79.5,68.5 C 79.1667,68.5 78.8333,68.5 78.5,68.5C 80.3978,60.9952 81.5644,53.3286 82,45.5C 82.9662,53.4918 82.1329,61.1584 79.5,68.5 Z"/></g>
<g><path style="opacity:1" fill="#555555" d="M 164.5,56.5 C 162.243,55.4382 161.077,53.7715 161,51.5C 162.802,52.7893 163.969,54.4559 164.5,56.5 Z"/></g>
<g><path style="opacity:1" fill="#4b4b4b" d="M 148.5,51.5 C 154.047,62.0961 155.88,73.4294 154,85.5C 150.069,102.841 151.236,119.841 157.5,136.5C 150.962,122.63 148.795,107.964 151,92.5C 152.48,87.4356 153.313,82.2689 153.5,77C 152.792,68.2955 151.126,59.7955 148.5,51.5 Z"/></g>
<g><path style="opacity:1" fill="#464646" d="M 4.5,50.5 C 6.3264,52.1475 7.65974,54.1475 8.5,56.5C 6.17823,55.1979 4.8449,53.1979 4.5,50.5 Z"/></g>
<g><path style="opacity:1" fill="#808080" d="M 68.5,61.5 C 67.2905,61.0679 66.2905,60.4013 65.5,59.5C 67.1171,58.4107 67.9504,56.744 68,54.5C 68.3333,47.8333 68.6667,41.1667 69,34.5C 69.6806,43.5226 69.5139,52.5226 68.5,61.5 Z"/></g>
<g><path style="opacity:1" fill="#5e5e5e" d="M 8.5,56.5 C 10.5,57.8333 12.1667,59.5 13.5,61.5C 10.8333,60.8333 9.16667,59.1667 8.5,56.5 Z"/></g>
<g><path style="opacity:1" fill="#8f8f8f" d="M 60.5,59.5 C 61.8717,60.5116 63.205,61.5116 64.5,62.5C 50.0648,63.7105 36.0648,61.8772 22.5,57C 27.4536,57.8178 32.4536,58.8178 37.5,60C 45.3446,60.8223 53.0113,60.6557 60.5,59.5 Z"/></g>
<g><path style="opacity:1" fill="#040404" d="M 668.5,58.5 C 693.813,55.9926 715.646,63.3259 734,80.5C 751.759,102.927 755.426,127.594 745,154.5C 733.393,179.071 713.893,192.237 686.5,194C 657.551,196.149 635.051,185.315 619,161.5C 607.751,138.138 607.751,114.804 619,91.5C 630.76,73.3715 647.26,62.3715 668.5,58.5 Z"/></g>
<g><path style="opacity:1" fill="#050505" d="M 1117.5,58.5 C 1117.5,72.8333 1117.5,87.1667 1117.5,101.5C 1116.5,101.5 1115.5,101.5 1114.5,101.5C 1108.16,77.3268 1092.49,65.8268 1067.5,67C 1053.36,70.4708 1043.53,78.9708 1038,92.5C 1035.93,98.0529 1034.26,103.72 1033,109.5C 1032.33,120.167 1032.33,130.833 1033,141.5C 1034.07,155.728 1039.57,167.895 1049.5,178C 1066.07,189.25 1082.74,189.25 1099.5,178C 1104.97,173.533 1110.13,168.7 1115,163.5C 1115.67,166.833 1115.67,170.167 1115,173.5C 1099.18,189.442 1080.01,196.276 1057.5,194C 1015.45,185.931 995.951,160.431 999,117.5C 1005.64,86.1899 1024.48,66.6899 1055.5,59C 1062.17,58.3333 1068.83,58.3333 1075.5,59C 1085.49,61.4421 1095.32,64.2754 1105,67.5C 1110.17,67.336 1113.17,64.6693 1114,59.5C 1115.01,58.6634 1116.18,58.33 1117.5,58.5 Z"/></g>
<g><path style="opacity:1" fill="#040404" d="M 1618.5,58.5 C 1643.81,55.9926 1665.65,63.3259 1684,80.5C 1701.76,102.927 1705.43,127.594 1695,154.5C 1683.39,179.071 1663.89,192.237 1636.5,194C 1607.55,196.149 1585.05,185.315 1569,161.5C 1557.75,138.138 1557.75,114.804 1569,91.5C 1580.76,73.3715 1597.26,62.3715 1618.5,58.5 Z"/></g>
<g><path style="opacity:1" fill="#030303" d="M 1832.5,59.5 C 1833.83,59.5 1835.17,59.5 1836.5,59.5C 1836.5,73.8333 1836.5,88.1667 1836.5,102.5C 1835.17,102.5 1833.83,102.5 1832.5,102.5C 1823.78,76.2464 1805.78,64.4131 1778.5,67C 1764.35,74.1755 1755.85,85.6755 1753,101.5C 1749.67,119.833 1749.67,138.167 1753,156.5C 1760.32,181.909 1776.82,191.409 1802.5,185C 1803.5,184.5 1804.5,184 1805.5,183.5C 1806.67,171.514 1806.83,159.514 1806,147.5C 1802.68,141.586 1797.51,138.919 1790.5,139.5C 1790.5,138.5 1790.5,137.5 1790.5,136.5C 1810.83,136.5 1831.17,136.5 1851.5,136.5C 1851.5,137.5 1851.5,138.5 1851.5,139.5C 1844.97,139.178 1840.14,141.845 1837,147.5C 1836.67,159.5 1836.33,171.5 1836,183.5C 1825.11,188.764 1813.61,191.931 1801.5,193C 1771.05,198.413 1746.22,189.247 1727,165.5C 1709.15,130.431 1714.65,99.598 1743.5,73C 1758.88,61.2546 1776.21,56.588 1795.5,59C 1805.33,61.3316 1814.99,64.1649 1824.5,67.5C 1828.81,66.5261 1831.47,63.8594 1832.5,59.5 Z"/></g>
<g><path style="opacity:1" fill="#646464" d="M 164.5,56.5 C 166.587,57.5846 167.92,59.2512 168.5,61.5C 166.413,60.4154 165.08,58.7488 164.5,56.5 Z"/></g>
<g><path style="opacity:1" fill="#545454" d="M 1117.5,58.5 C 1118.5,72.9905 1118.83,87.6572 1118.5,102.5C 1116.9,102.768 1115.57,102.434 1114.5,101.5C 1115.5,101.5 1116.5,101.5 1117.5,101.5C 1117.5,87.1667 1117.5,72.8333 1117.5,58.5 Z"/></g>
<g><path style="opacity:1" fill="#aaaaaa" d="M 1832.5,59.5 C 1833.92,58.5489 1835.59,58.2155 1837.5,58.5C 1837.83,73.3428 1837.5,88.0095 1836.5,102.5C 1836.5,88.1667 1836.5,73.8333 1836.5,59.5C 1835.17,59.5 1833.83,59.5 1832.5,59.5 Z"/></g>
<g><path style="opacity:1" fill="#4b4b4b" d="M 144.5,58.5 C 145.931,59.7804 146.598,61.4471 146.5,63.5C 145.069,62.2196 144.402,60.5529 144.5,58.5 Z"/></g>
<g><path style="opacity:1" fill="#c7c7c7" d="M 792.5,61.5 C 814.994,60.5025 837.661,60.1692 860.5,60.5C 860.768,62.099 860.434,63.4324 859.5,64.5C 859.5,63.5 859.5,62.5 859.5,61.5C 837.167,61.5 814.833,61.5 792.5,61.5 Z"/></g>
<g><path style="opacity:1" fill="#1e1e1e" d="M 206.5,79.5 C 206.167,79.5 205.833,79.5 205.5,79.5C 205.5,78.1667 205.5,76.8333 205.5,75.5C 205.768,73.901 205.434,72.5676 204.5,71.5C 204.637,66.0684 203.971,60.735 202.5,55.5C 202.667,54.8333 202.833,54.1667 203,53.5C 206.132,61.8603 207.299,70.5269 206.5,79.5 Z"/></g>
<g><path style="opacity:1" fill="#030303" d="M 418.5,131.5 C 409.5,131.5 400.5,131.5 391.5,131.5C 391.171,146.676 391.504,161.676 392.5,176.5C 394.22,185.878 399.887,189.544 409.5,187.5C 409.5,188.833 409.5,190.167 409.5,191.5C 387.5,191.5 365.5,191.5 343.5,191.5C 343.5,190.167 343.5,188.833 343.5,187.5C 350.016,188.763 355.516,187.096 360,182.5C 360.333,181.5 360.667,180.5 361,179.5C 361.667,143.833 361.667,108.167 361,72.5C 359.833,70 358,68.1667 355.5,67C 351.687,65.228 347.687,64.3947 343.5,64.5C 343.5,63.5 343.5,62.5 343.5,61.5C 369.502,61.3334 395.502,61.5 421.5,62C 437.627,63.1384 450.127,70.3051 459,83.5C 464.984,104.033 458.15,118.533 438.5,127C 432.037,129.449 425.37,130.949 418.5,131.5 Z"/></g>
<g><path style="opacity:1" fill="#020202" d="M 470.5,191.5 C 470.5,190.5 470.5,189.5 470.5,188.5C 472.735,188.795 474.735,188.461 476.5,187.5C 484.132,187.282 487.965,183.282 488,175.5C 488.667,141.833 488.667,108.167 488,74.5C 486.735,68.9385 483.235,65.7718 477.5,65C 474.854,64.5026 472.187,64.3359 469.5,64.5C 469.5,63.5 469.5,62.5 469.5,61.5C 495.502,61.3334 521.502,61.5 547.5,62C 578.769,67.4018 589.269,84.9018 579,114.5C 572.803,122.024 564.969,127.191 555.5,130C 565.125,145.416 574.625,160.916 584,176.5C 586.463,179.965 589.296,183.131 592.5,186C 594.345,187.128 596.345,187.628 598.5,187.5C 598.5,188.833 598.5,190.167 598.5,191.5C 585.829,191.667 573.162,191.5 560.5,191C 548.5,171.667 536.5,152.333 524.5,133C 522.527,132.505 520.527,132.338 518.5,132.5C 518.333,148.17 518.5,163.837 519,179.5C 520.105,182.937 522.272,185.437 525.5,187C 529.486,187.499 533.486,187.666 537.5,187.5C 537.5,188.833 537.5,190.167 537.5,191.5C 515.167,191.5 492.833,191.5 470.5,191.5 Z"/></g>
<g><path style="opacity:1" fill="#060606" d="M 792.5,61.5 C 814.833,61.5 837.167,61.5 859.5,61.5C 859.5,62.5 859.5,63.5 859.5,64.5C 855.753,64.3924 852.086,64.8924 848.5,66C 846,67.1667 844.167,69 843,71.5C 842.971,103.881 842.304,136.214 841,168.5C 833.329,186.508 819.662,194.842 800,193.5C 785.819,194.739 774.485,189.739 766,178.5C 760.189,168.805 761.689,160.639 770.5,154C 784.381,151.224 790.548,156.724 789,170.5C 787.15,173.677 785.317,176.843 783.5,180C 784.487,183.653 786.82,185.987 790.5,187C 800.307,189.843 807.14,186.676 811,177.5C 811.667,142.167 811.667,106.833 811,71.5C 810.215,69.714 809.049,68.214 807.5,67C 802.637,65.3274 797.637,64.494 792.5,64.5C 792.5,63.5 792.5,62.5 792.5,61.5 Z"/></g>
<g><path style="opacity:1" fill="#020202" d="M 866.5,61.5 C 903.167,61.5 939.833,61.5 976.5,61.5C 976.5,73.8333 976.5,86.1667 976.5,98.5C 975.167,98.5 973.833,98.5 972.5,98.5C 971.223,83.0764 963.223,73.2431 948.5,69C 937.505,68.5002 926.505,68.3335 915.5,68.5C 915.5,86.1667 915.5,103.833 915.5,121.5C 927.869,123.462 936.369,118.795 941,107.5C 942.732,102.65 943.732,97.6496 944,92.5C 945.011,91.6634 946.178,91.33 947.5,91.5C 947.5,113.5 947.5,135.5 947.5,157.5C 946.5,157.5 945.5,157.5 944.5,157.5C 944.243,147.49 940.576,138.99 933.5,132C 927.892,128.957 921.892,127.791 915.5,128.5C 915.333,143.837 915.5,159.17 916,174.5C 916.173,178.741 918.006,181.908 921.5,184C 930.833,184.667 940.167,184.667 949.5,184C 966.739,179.725 977.406,168.891 981.5,151.5C 982.873,151.343 984.207,151.51 985.5,152C 983.056,165.061 981.056,178.228 979.5,191.5C 941.833,191.5 904.167,191.5 866.5,191.5C 866.5,190.5 866.5,189.5 866.5,188.5C 872.189,188.911 877.522,187.744 882.5,185C 883.46,183.581 884.293,182.081 885,180.5C 885.667,144.833 885.667,109.167 885,73.5C 884.261,70.4265 882.428,68.2598 879.5,67C 875.312,65.3693 870.979,64.5359 866.5,64.5C 866.5,63.5 866.5,62.5 866.5,61.5 Z"/></g>
<g><path style="opacity:1" fill="#040404" d="M 1155.5,191.5 C 1155.5,190.5 1155.5,189.5 1155.5,188.5C 1157.74,188.795 1159.74,188.461 1161.5,187.5C 1167.8,187.707 1171.63,184.707 1173,178.5C 1173.5,141.835 1173.67,105.168 1173.5,68.5C 1166.16,68.3337 1158.83,68.5003 1151.5,69C 1140.93,74.6267 1135.26,83.4601 1134.5,95.5C 1133.17,95.5 1131.83,95.5 1130.5,95.5C 1130.5,84.1667 1130.5,72.8333 1130.5,61.5C 1169.17,61.5 1207.83,61.5 1246.5,61.5C 1246.5,72.8333 1246.5,84.1667 1246.5,95.5C 1245.5,95.5 1244.5,95.5 1243.5,95.5C 1242.99,81.958 1236.32,73.1247 1223.5,69C 1216.84,68.5004 1210.17,68.3337 1203.5,68.5C 1203.33,104.168 1203.5,139.835 1204,175.5C 1206.19,185.359 1212.36,189.359 1222.5,187.5C 1222.5,188.833 1222.5,190.167 1222.5,191.5C 1200.17,191.5 1177.83,191.5 1155.5,191.5 Z"/></g>
<g><path style="opacity:1" fill="#020202" d="M 1303.5,61.5 C 1328.84,61.3334 1354.17,61.5 1379.5,62C 1391.99,62.6613 1402.49,67.4947 1411,76.5C 1420.96,96.4099 1415.79,110.91 1395.5,120C 1392.17,121 1388.83,122 1385.5,123C 1395.11,124.534 1403.78,128.2 1411.5,134C 1423.06,146.29 1424.56,159.79 1416,174.5C 1406.93,184.118 1395.76,189.618 1382.5,191C 1355.84,191.5 1329.17,191.667 1302.5,191.5C 1302.5,190.5 1302.5,189.5 1302.5,188.5C 1307.03,188.733 1311.37,187.9 1315.5,186C 1317.89,184.048 1319.39,181.548 1320,178.5C 1320.67,143.5 1320.67,108.5 1320,73.5C 1319.31,70.804 1317.81,68.6374 1315.5,67C 1311.75,65.0111 1307.75,64.1778 1303.5,64.5C 1303.5,63.5 1303.5,62.5 1303.5,61.5 Z"/></g>
<g><path style="opacity:1" fill="#010101" d="M 1429.5,61.5 C 1453.83,61.5 1478.17,61.5 1502.5,61.5C 1502.5,62.5 1502.5,63.5 1502.5,64.5C 1497.09,64.2288 1491.75,64.7288 1486.5,66C 1482.83,67.668 1480.67,70.5013 1480,74.5C 1479.33,108.833 1479.33,143.167 1480,177.5C 1480.79,180.583 1482.62,182.749 1485.5,184C 1516.89,191.077 1536.39,179.244 1544,148.5C 1545.01,147.663 1546.18,147.33 1547.5,147.5C 1545.77,162.125 1544.44,176.792 1543.5,191.5C 1505.5,191.5 1467.5,191.5 1429.5,191.5C 1429.5,190.167 1429.5,188.833 1429.5,187.5C 1433.51,187.666 1437.51,187.499 1441.5,187C 1445.5,185.514 1448,182.68 1449,178.5C 1449.67,143.5 1449.67,108.5 1449,73.5C 1448.12,70.8976 1446.62,68.7309 1444.5,67C 1439.64,65.3274 1434.64,64.494 1429.5,64.5C 1429.5,63.5 1429.5,62.5 1429.5,61.5 Z"/></g>
<g><path style="opacity:1" fill="#515151" d="M 168.5,61.5 C 170.262,62.2623 171.262,63.5956 171.5,65.5C 169.738,64.7377 168.738,63.4044 168.5,61.5 Z"/></g>
<g><path style="opacity:1" fill="#7c7c7c" d="M 91.5,79.5 C 90.5,79.1667 89.8333,78.5 89.5,77.5C 93.7258,66.6957 95.5591,55.3623 95,43.5C 95.6667,49.8333 95.6667,56.1667 95,62.5C 93.8932,68.2011 92.7266,73.8678 91.5,79.5 Z"/></g>
<g><path style="opacity:1" fill="#505050" d="M 182.5,70.5 C 181.206,69.7101 180.039,68.7101 179,67.5C 178.833,67.8333 178.667,68.1667 178.5,68.5C 180.262,72.0018 180.762,75.6684 180,79.5C 178.053,77.9366 176.886,75.9366 176.5,73.5C 177.117,73.6107 177.617,73.944 178,74.5C 177.733,69.453 175.9,64.953 172.5,61C 173.167,60.3333 173.833,60.3333 174.5,61C 177.777,63.7663 180.443,66.933 182.5,70.5 Z"/></g>
<g><path style="opacity:1" fill="#fdfdfd" d="M 672.5,65.5 C 691.585,63.4099 704.418,71.4099 711,89.5C 713.555,95.9429 715.222,102.61 716,109.5C 719.737,132.532 716.071,154.198 705,174.5C 693.788,188.335 680.288,191.168 664.5,183C 652.77,171.703 646.27,157.87 645,141.5C 644.333,131.167 644.333,120.833 645,110.5C 645.789,97.4608 650.122,85.7942 658,75.5C 662.325,71.2683 667.158,67.9349 672.5,65.5 Z"/></g>
<g><path style="opacity:1" fill="#fdfdfd" d="M 1622.5,65.5 C 1641.58,63.4099 1654.42,71.4099 1661,89.5C 1663.56,95.9429 1665.22,102.61 1666,109.5C 1669.74,132.532 1666.07,154.198 1655,174.5C 1643.79,188.335 1630.29,191.168 1614.5,183C 1602.77,171.703 1596.27,157.87 1595,141.5C 1594.33,131.167 1594.33,120.833 1595,110.5C 1595.79,97.4608 1600.12,85.7942 1608,75.5C 1612.32,71.2683 1617.16,67.9349 1622.5,65.5 Z"/></g>
<g><path style="opacity:1" fill="#404040" d="M 171.5,65.5 C 172.906,65.9731 173.573,66.9731 173.5,68.5C 172.094,68.0269 171.427,67.0269 171.5,65.5 Z"/></g>
<g><path style="opacity:1" fill="#4c4c4c" d="M 217.5,94.5 C 217.968,86.6759 217.135,79.0092 215,71.5C 216.199,80.894 215.032,89.894 211.5,98.5C 213.895,86.7835 214.062,75.1168 212,63.5C 218.303,73.1336 220.136,83.4669 217.5,94.5 Z"/></g>
<g><path style="opacity:1" fill="#717171" d="M 392.5,68.5 C 392.5,87.1667 392.5,105.833 392.5,124.5C 397.833,124.5 403.167,124.5 408.5,124.5C 403.025,125.489 397.358,125.822 391.5,125.5C 391.17,106.326 391.503,87.326 392.5,68.5 Z"/></g>
<g><path style="opacity:1" fill="#fdfdfd" d="M 392.5,68.5 C 423.517,66.137 435.017,80.137 427,110.5C 423.686,118.91 417.519,123.577 408.5,124.5C 403.167,124.5 397.833,124.5 392.5,124.5C 392.5,105.833 392.5,87.1667 392.5,68.5 Z"/></g>
<g><path style="opacity:1" fill="#fcfcfc" d="M 518.5,68.5 C 540.583,65.4288 552.25,74.9288 553.5,97C 552.298,119.017 540.631,128.517 518.5,125.5C 518.5,106.5 518.5,87.5 518.5,68.5 Z"/></g>
<g><path style="opacity:1" fill="#fafafa" d="M 1350.5,68.5 C 1371.49,64.843 1382.82,73.5097 1384.5,94.5C 1382.22,114.668 1370.89,123.334 1350.5,120.5C 1350.5,103.167 1350.5,85.8333 1350.5,68.5 Z"/></g>
<g><path style="opacity:1" fill="#4b4b4b" d="M 13.5,61.5 C 19.952,65.7233 26.952,68.89 34.5,71C 28.1862,71.3839 22.0195,70.5505 16,68.5C 14.9701,68.8361 14.4701,69.5028 14.5,70.5C 13.1154,69.4264 11.9487,68.0931 11,66.5C 10.3123,65.6683 10.479,65.0016 11.5,64.5C 14.7242,67.1864 18.3909,68.3531 22.5,68C 19.0386,66.3572 16.0386,64.1905 13.5,61.5 Z"/></g>
<g><path style="opacity:1" fill="#b4b4b4" d="M 144.5,105.5 C 144.167,105.5 143.833,105.5 143.5,105.5C 143.792,91.6064 143.292,77.6064 142,63.5C 144.23,77.396 145.064,91.396 144.5,105.5 Z"/></g>
<g><path style="opacity:1" fill="#4a4a4a" d="M 173.5,68.5 C 175.25,69.6594 176.25,71.326 176.5,73.5C 174.75,72.3406 173.75,70.674 173.5,68.5 Z"/></g>
<g><path style="opacity:1" fill="#484848" d="M 14.5,70.5 C 16.3264,72.1475 17.6597,74.1475 18.5,76.5C 16.1782,75.1979 14.8449,73.1979 14.5,70.5 Z"/></g>
<g><path style="opacity:1" fill="#818181" d="M 99.5,75.5 C 100.266,70.5006 101.1,65.5006 102,60.5C 102.872,65.8881 102.039,70.8881 99.5,75.5 Z"/></g>
<g><path style="opacity:1" fill="#747474" d="M 115.5,87.5 C 116.938,78.5703 117.771,69.5703 118,60.5C 118.667,67.1667 118.667,73.8333 118,80.5C 117.61,83.1042 116.776,85.4375 115.5,87.5 Z"/></g>
<g><path style="opacity:1" fill="#f8f8f8" d="M 217.5,94.5 C 215.873,98.3151 214.54,102.315 213.5,106.5C 213.232,108.099 213.566,109.432 214.5,110.5C 213.89,111.391 213.557,112.391 213.5,113.5C 214.906,113.027 215.573,112.027 215.5,110.5C 215.328,109.508 215.662,108.842 216.5,108.5C 218.163,106.507 219.33,104.174 220,101.5C 221.28,94.8765 222.28,88.2098 223,81.5C 224.244,93.0425 223.244,104.376 220,115.5C 216.393,124.823 212.893,134.156 209.5,143.5C 207.599,151.722 207.099,160.056 208,168.5C 208.374,170.491 209.207,172.158 210.5,173.5C 212.66,177.215 213.993,181.215 214.5,185.5C 214.19,188.713 214.523,191.713 215.5,194.5C 215.762,195.978 215.429,197.311 214.5,198.5C 210.146,194.812 206.146,190.812 202.5,186.5C 201.121,180.898 199.954,175.231 199,169.5C 198.465,174.095 198.965,178.595 200.5,183C 200.43,183.765 200.097,184.265 199.5,184.5C 196.193,181.647 194.526,177.981 194.5,173.5C 192.811,165.89 191.311,158.223 190,150.5C 189.408,153.694 189.574,156.861 190.5,160C 190.333,160.833 190.167,161.667 190,162.5C 189.722,161.584 189.222,160.918 188.5,160.5C 187.662,160.158 187.328,159.492 187.5,158.5C 188.623,156.312 188.623,153.979 187.5,151.5C 188.404,150.791 188.737,149.791 188.5,148.5C 187.733,128.51 191.9,109.51 201,91.5C 201.494,89.8659 201.66,88.1992 201.5,86.5C 202.987,82.8835 204.32,79.2169 205.5,75.5C 205.5,76.8333 205.5,78.1667 205.5,79.5C 204.501,85.4917 203.501,91.4917 202.5,97.5C 201.009,106.09 201.675,106.423 204.5,98.5C 205.268,97.7375 205.768,96.7375 206,95.5C 206.167,96.3333 206.333,97.1667 206.5,98C 205.591,101.466 204.924,104.966 204.5,108.5C 202.797,112.233 200.797,115.9 198.5,119.5C 198.667,119.833 198.833,120.167 199,120.5C 201.676,117.794 203.842,114.794 205.5,111.5C 207.873,109.421 209.206,106.754 209.5,103.5C 210.931,102.22 211.598,100.553 211.5,98.5C 215.032,89.894 216.199,80.894 215,71.5C 217.135,79.0092 217.968,86.6759 217.5,94.5 Z"/></g>
<g><path style="opacity:1" fill="#414141" d="M 18.5,76.5 C 20.2624,77.2623 21.2624,78.5956 21.5,80.5C 19.7376,79.7377 18.7376,78.4044 18.5,76.5 Z"/></g>
<g><path style="opacity:1" fill="#6a6a6a" d="M 99.5,75.5 C 99.5086,77.3084 99.0086,78.9751 98,80.5C 97.4014,78.4652 97.9014,76.7985 99.5,75.5 Z"/></g>
<g><path style="opacity:1" fill="#595959" d="M 204.5,71.5 C 205.434,72.5676 205.768,73.901 205.5,75.5C 204.32,79.2169 202.987,82.8835 201.5,86.5C 202.35,81.4404 203.35,76.4404 204.5,71.5 Z"/></g>
<g><path style="opacity:1" fill="#a8a8a8" d="M 222.5,73.5 C 221.833,77.8333 221.167,82.1667 220.5,86.5C 220.334,81.4889 220.501,76.4889 221,71.5C 221.717,72.0442 222.217,72.7109 222.5,73.5 Z"/></g>
<g><path style="opacity:1" fill="#3e3e3e" d="M 21.5,80.5 C 23.5869,81.5846 24.9202,83.2512 25.5,85.5C 23.4131,84.4154 22.0798,82.7488 21.5,80.5 Z"/></g>
<g><path style="opacity:1" fill="#b2b2b2" d="M 163.5,115.5 C 163.167,115.5 162.833,115.5 162.5,115.5C 163.907,103.552 164.74,91.5522 165,79.5C 165.83,91.5803 165.33,103.58 163.5,115.5 Z"/></g>
<g><path style="opacity:1" fill="#4f4f4f" d="M 25.5,85.5 C 28.5,87.8333 31.1667,90.5 33.5,93.5C 29.8333,91.8333 27.1667,89.1667 25.5,85.5 Z"/></g>
<g><path style="opacity:1" fill="#707070" d="M 88.5,87.5 C 88.5,87.8333 88.5,88.1667 88.5,88.5C 77.4818,87.5981 66.4818,86.4315 55.5,85C 66.5582,85.0907 77.5582,85.924 88.5,87.5 Z"/></g>
<g><path style="opacity:1" fill="#555555" d="M 205.5,79.5 C 205.833,79.5 206.167,79.5 206.5,79.5C 205.888,83.163 205.721,86.8297 206,90.5C 206.667,88.5 207.333,86.5 208,84.5C 208.622,92.8797 207.455,100.88 204.5,108.5C 204.924,104.966 205.591,101.466 206.5,98C 206.333,97.1667 206.167,96.3333 206,95.5C 205.768,96.7375 205.268,97.7375 204.5,98.5C 203.833,98.1667 203.167,97.8333 202.5,97.5C 203.501,91.4917 204.501,85.4917 205.5,79.5 Z"/></g>
<g><path style="opacity:1" fill="#f2f2f2" d="M 231.5,81.5 C 232.167,81.5 232.5,81.8333 232.5,82.5C 232.424,87.9647 232.258,93.6314 232,99.5C 227.632,117.972 222.799,136.305 217.5,154.5C 217.335,157.518 217.502,160.518 218,163.5C 218.608,161.846 219.108,160.179 219.5,158.5C 221.277,155.495 222.277,152.162 222.5,148.5C 223.117,148.389 223.617,148.056 224,147.5C 224.943,144.176 225.776,140.843 226.5,137.5C 228.818,135.815 229.818,133.481 229.5,130.5C 230.326,127.515 231.659,124.849 233.5,122.5C 237.417,114.76 239.251,106.427 239,97.5C 240.34,110.295 238.173,122.462 232.5,134C 232.611,135.722 233.111,135.888 234,134.5C 236.437,131.28 238.603,127.947 240.5,124.5C 241.906,124.027 242.573,123.027 242.5,121.5C 242.328,120.508 242.662,119.842 243.5,119.5C 245.203,118.34 245.869,119.007 245.5,121.5C 243.659,123.849 242.326,126.515 241.5,129.5C 241.833,129.5 242.167,129.5 242.5,129.5C 244.199,129.473 245.533,128.806 246.5,127.5C 247.363,126.537 248.03,126.537 248.5,127.5C 247.423,129.729 246.756,132.063 246.5,134.5C 244.326,137.515 242.659,140.849 241.5,144.5C 240.094,144.973 239.427,145.973 239.5,147.5C 238.094,147.973 237.427,148.973 237.5,150.5C 235.184,153.095 232.851,155.761 230.5,158.5C 230.667,158.833 230.833,159.167 231,159.5C 236.193,155.003 237.36,155.67 234.5,161.5C 234.34,163.153 233.674,164.486 232.5,165.5C 224.825,177.981 224.658,190.647 232,203.5C 232.654,204.696 233.154,204.696 233.5,203.5C 230.729,193.411 231.062,183.411 234.5,173.5C 237.008,169.818 239.008,165.818 240.5,161.5C 242.924,158.992 244.59,155.992 245.5,152.5C 245.992,150.181 246.992,148.181 248.5,146.5C 250.601,143.203 251.935,139.537 252.5,135.5C 253.477,138.287 253.81,141.287 253.5,144.5C 252.883,149.585 251.883,154.585 250.5,159.5C 250.008,161.819 249.008,163.819 247.5,165.5C 246.094,165.973 245.427,166.973 245.5,168.5C 242.998,170.17 240.998,172.336 239.5,175C 246.088,172.926 251.088,168.76 254.5,162.5C 257.051,160.422 258.884,157.756 260,154.5C 259.74,158.709 258.573,162.709 256.5,166.5C 252.398,171.105 248.064,175.605 243.5,180C 247.054,179.13 250.221,177.297 253,174.5C 252.074,177.686 250.574,180.686 248.5,183.5C 246.413,184.585 245.08,186.251 244.5,188.5C 244.672,189.492 244.338,190.158 243.5,190.5C 239.038,201.716 239.871,212.716 246,223.5C 247.371,225.041 248.871,226.375 250.5,227.5C 251.475,229.795 252.808,231.795 254.5,233.5C 249.54,229.712 244.707,225.712 240,221.5C 239.506,219.866 239.34,218.199 239.5,216.5C 238.732,208.881 238.232,201.214 238,193.5C 237.177,201.677 237.344,209.677 238.5,217.5C 238.631,218.239 238.464,218.906 238,219.5C 232.878,216.217 229.044,211.883 226.5,206.5C 224.871,197.971 224.037,189.305 224,180.5C 223.333,187.833 223.333,195.167 224,202.5C 224.21,204.058 224.71,205.391 225.5,206.5C 225.631,207.239 225.464,207.906 225,208.5C 222.333,205.833 219.667,203.167 217,200.5C 216.505,198.527 216.338,196.527 216.5,194.5C 216.01,191.345 215.344,188.345 214.5,185.5C 213.663,173.819 213.496,162.152 214,150.5C 213.068,158.477 212.402,166.477 212,174.5C 211.768,173.263 211.268,172.263 210.5,171.5C 210.5,165.5 210.5,159.5 210.5,153.5C 211.338,153.158 211.672,152.492 211.5,151.5C 211.993,149.194 212.326,146.861 212.5,144.5C 215.513,135.457 218.846,126.457 222.5,117.5C 223.931,116.22 224.598,114.553 224.5,112.5C 226.595,108.837 228.095,104.837 229,100.5C 229.929,94.0342 230.763,87.7009 231.5,81.5 Z"/></g>
<g><path style="opacity:1" fill="#4e4e4e" d="M 33.5,93.5 C 35.7488,94.0798 37.4154,95.4131 38.5,97.5C 36.2512,96.9202 34.5846,95.5869 33.5,93.5 Z"/></g>
<g><path style="opacity:1" fill="#eeeeee" d="M 133.5,107.5 C 133.073,110.01 132.407,112.343 131.5,114.5C 131.28,108.03 132.114,101.697 134,95.5C 134.17,99.4934 134.004,103.493 133.5,107.5 Z"/></g>
<g><path style="opacity:1" fill="#393939" d="M 217.5,94.5 C 217.541,99.0445 216.208,103.044 213.5,106.5C 214.54,102.315 215.873,98.3151 217.5,94.5 Z"/></g>
<g><path style="opacity:1" fill="#5d5d5d" d="M 38.5,97.5 C 40.0269,97.427 41.0269,98.0937 41.5,99.5C 39.9731,99.573 38.9731,98.9063 38.5,97.5 Z"/></g>
<g><path style="opacity:1" fill="#4c4c4c" d="M 231.5,81.5 C 230.763,87.7009 229.929,94.0342 229,100.5C 228.095,104.837 226.595,108.837 224.5,112.5C 226.303,105.919 227.803,99.252 229,92.5C 230.012,86.6504 229.512,80.9837 227.5,75.5C 227.667,75.1667 227.833,74.8333 228,74.5C 229.879,76.5268 231.046,78.8602 231.5,81.5 Z"/></g>
<g><path style="opacity:1" fill="#575757" d="M 41.5,99.5 C 44.9889,100.658 48.3223,101.991 51.5,103.5C 47.5252,103.514 44.1918,102.181 41.5,99.5 Z"/></g>
<g><path style="opacity:1" fill="#4a4a4a" d="M 201.5,86.5 C 201.66,88.1992 201.494,89.8659 201,91.5C 191.9,109.51 187.733,128.51 188.5,148.5C 188.125,137.778 188.625,127.111 190,116.5C 193.368,106.216 197.201,96.2164 201.5,86.5 Z"/></g>
<g><path style="opacity:1" fill="#444444" d="M 61.5,106.5 C 61.5,107.167 61.1667,107.5 60.5,107.5C 52.3123,107.536 44.6457,105.536 37.5,101.5C 36.8333,101.833 36.1667,102.167 35.5,102.5C 33.517,100.016 31.3504,97.6829 29,95.5C 28.3333,94.8333 28.3333,94.1667 29,93.5C 38.1108,102.039 48.9441,106.372 61.5,106.5 Z"/></g>
<g><path style="opacity:1" fill="#4b4b4b" d="M 211.5,98.5 C 211.598,100.553 210.931,102.22 209.5,103.5C 209.402,101.447 210.069,99.7804 211.5,98.5 Z"/></g>
<g><path style="opacity:1" fill="#5b5b5b" d="M 146.5,63.5 C 149.105,69.09 150.438,75.09 150.5,81.5C 149.467,93.4882 149.3,105.488 150,117.5C 150.806,124.038 152.306,130.371 154.5,136.5C 153.508,136.672 152.842,136.338 152.5,135.5C 147.752,118.297 146.419,100.797 148.5,83C 148.544,76.4134 147.878,69.9134 146.5,63.5 Z"/></g>
<g><path style="opacity:1" fill="#efefef" d="M 99.5,103.5 C 103.876,103.909 108.21,104.575 112.5,105.5C 111.551,106.152 110.385,106.486 109,106.5C 103.016,105.687 97.0165,105.02 91,104.5C 84.5226,105.441 78.0226,106.108 71.5,106.5C 70.448,106.649 69.448,106.483 68.5,106C 78.721,103.872 89.0543,103.039 99.5,103.5 Z"/></g>
<g><path style="opacity:1" fill="#191919" d="M 202.5,97.5 C 203.167,97.8333 203.833,98.1667 204.5,98.5C 201.675,106.423 201.009,106.09 202.5,97.5 Z"/></g>
<g><path style="opacity:1" fill="#656565" d="M 99.5,102.5 C 99.5,102.833 99.5,103.167 99.5,103.5C 89.0543,103.039 78.721,103.872 68.5,106C 69.448,106.483 70.448,106.649 71.5,106.5C 71.8417,107.338 72.5084,107.672 73.5,107.5C 69.1667,108.833 64.8333,108.833 60.5,107.5C 61.1667,107.5 61.5,107.167 61.5,106.5C 58.1129,105.712 54.7796,104.712 51.5,103.5C 56.1538,103.916 60.8205,104.249 65.5,104.5C 73.8098,103.393 82.1431,102.393 90.5,101.5C 93.5508,101.598 96.5508,101.931 99.5,102.5 Z"/></g>
<g><path style="opacity:1" fill="#454545" d="M 112.5,105.5 C 115.767,106.031 116.1,107.031 113.5,108.5C 100.219,106.303 86.8859,105.969 73.5,107.5C 72.5084,107.672 71.8417,107.338 71.5,106.5C 78.0226,106.108 84.5226,105.441 91,104.5C 97.0165,105.02 103.016,105.687 109,106.5C 110.385,106.486 111.551,106.152 112.5,105.5 Z"/></g>
<g><path style="opacity:1" fill="#515151" d="M 129.5,43.5 C 130.793,44.842 131.626,46.5087 132,48.5C 136.989,67.9773 137.822,87.644 134.5,107.5C 134.167,107.5 133.833,107.5 133.5,107.5C 134.004,103.493 134.17,99.4934 134,95.5C 132.114,101.697 131.28,108.03 131.5,114.5C 130.5,114.167 129.833,113.5 129.5,112.5C 131.025,103.333 132.358,93.9999 133.5,84.5C 132.626,75.342 130.96,66.342 128.5,57.5C 130.749,61.4557 132.249,65.7891 133,70.5C 134.096,78.1239 134.762,85.7906 135,93.5C 136.451,76.448 134.618,59.7813 129.5,43.5 Z"/></g>
<g><path style="opacity:1" fill="#3b3b3b" d="M 46.5,110.5 C 43.3703,109.428 40.7036,107.594 38.5,105C 39.1667,104.333 39.8333,104.333 40.5,105C 42.7632,106.617 44.7632,108.45 46.5,110.5 Z"/></g>
<g><path style="opacity:1" fill="#555555" d="M 209.5,103.5 C 209.206,106.754 207.873,109.421 205.5,111.5C 206.326,108.515 207.659,105.849 209.5,103.5 Z"/></g>
<g><path style="opacity:1" fill="#505050" d="M 182.5,70.5 C 186.226,75.1406 188.726,80.4739 190,86.5C 190.667,93.1667 190.667,99.8333 190,106.5C 187.737,112.981 186.57,119.648 186.5,126.5C 185.549,125.081 185.216,123.415 185.5,121.5C 187.392,113.097 188.725,104.597 189.5,96C 189.096,86.9576 186.763,78.4576 182.5,70.5 Z"/></g>
<g><path style="opacity:1" fill="#333333" d="M 208.5,115.5 C 208.795,113.577 209.628,111.91 211,110.5C 211.249,112.668 210.416,114.335 208.5,115.5 Z"/></g>
<g><path style="opacity:1" fill="#3b3b3b" d="M 214.5,110.5 C 214.833,110.5 215.167,110.5 215.5,110.5C 215.573,112.027 214.906,113.027 213.5,113.5C 213.557,112.391 213.89,111.391 214.5,110.5 Z"/></g>
<g><path style="opacity:1" fill="#7f7f7f" d="M 133.5,107.5 C 133.833,107.5 134.167,107.5 134.5,107.5C 134.5,110.833 134.5,114.167 134.5,117.5C 133.5,116.5 132.5,115.5 131.5,114.5C 132.407,112.343 133.073,110.01 133.5,107.5 Z"/></g>
<g><path style="opacity:1" fill="#494949" d="M 46.5,110.5 C 52.1857,113.011 57.8523,115.511 63.5,118C 56.8742,118.458 50.5408,117.291 44.5,114.5C 43.913,115.233 43.913,116.233 44.5,117.5C 37.2735,110.442 37.9401,109.276 46.5,114C 49.4302,115.318 52.4302,115.985 55.5,116C 52.1019,114.643 49.1019,112.81 46.5,110.5 Z"/></g>
<g><path style="opacity:1" fill="#373737" d="M 204.5,108.5 C 204.263,109.791 204.596,110.791 205.5,111.5C 203.842,114.794 201.676,117.794 199,120.5C 198.833,120.167 198.667,119.833 198.5,119.5C 200.797,115.9 202.797,112.233 204.5,108.5 Z"/></g>
<g><path style="opacity:1" fill="#515151" d="M 224.5,112.5 C 224.598,114.553 223.931,116.22 222.5,117.5C 222.402,115.447 223.069,113.78 224.5,112.5 Z"/></g>
<g><path style="opacity:1" fill="#4c4c4c" d="M 240.5,124.5 C 238.603,127.947 236.437,131.28 234,134.5C 233.111,135.888 232.611,135.722 232.5,134C 238.173,122.462 240.34,110.295 239,97.5C 239.251,106.427 237.417,114.76 233.5,122.5C 235.666,115.502 236.999,108.335 237.5,101C 237.353,96.6979 236.853,92.5312 236,88.5C 240.812,95.0856 242.479,102.419 241,110.5C 239.855,115.888 238.855,121.222 238,126.5C 238.708,125.619 239.542,124.953 240.5,124.5 Z"/></g>
<g><path style="opacity:1" fill="#858585" d="M 105.5,116.5 C 111.245,116.211 116.912,116.711 122.5,118C 118.66,118.406 114.827,118.239 111,117.5C 105.532,118.663 100.032,119.163 94.5,119C 98.3917,118.581 102.058,117.748 105.5,116.5 Z"/></g>
<g><path style="opacity:1" fill="#7a7a7a" d="M 143.5,105.5 C 143.833,105.5 144.167,105.5 144.5,105.5C 144.656,112.237 145.323,118.903 146.5,125.5C 145.732,126.263 145.232,127.263 145,128.5C 144.283,127.956 143.783,127.289 143.5,126.5C 143.939,119.686 143.939,112.686 143.5,105.5 Z"/></g>
<g><path style="opacity:1" fill="#878787" d="M 179.5,147.5 C 179.167,147.5 178.833,147.5 178.5,147.5C 177.835,132.619 178.835,117.786 181.5,103C 180.521,99.1955 180.355,95.3622 181,91.5C 181.856,95.6237 182.356,99.7904 182.5,104C 180.302,118.419 179.302,132.919 179.5,147.5 Z"/></g>
<g><path style="opacity:1" fill="#696969" d="M 44.5,117.5 C 45.6266,118.122 46.6266,118.955 47.5,120C 45.5106,120.519 44.5106,119.686 44.5,117.5 Z"/></g>
<g><path style="opacity:1" fill="#393939" d="M 213.5,113.5 C 211.889,117.635 208.889,119.802 204.5,120C 205.733,118.333 207.067,116.833 208.5,115.5C 208.369,116.239 208.536,116.906 209,117.5C 210.371,115.959 211.871,114.625 213.5,113.5 Z"/></g>
<g><path style="opacity:1" fill="#4c4c4c" d="M 245.5,121.5 C 245.869,119.007 245.203,118.34 243.5,119.5C 246.187,114.785 248.354,109.785 250,104.5C 250.207,110.677 248.707,116.343 245.5,121.5 Z"/></g>
<g><path style="opacity:1" fill="#4c4c4c" d="M 242.5,121.5 C 242.573,123.027 241.906,124.027 240.5,124.5C 240.427,122.973 241.094,121.973 242.5,121.5 Z"/></g>
<g><path style="opacity:1" fill="#585858" d="M 232.5,82.5 C 233.584,88.783 233.751,95.1163 233,101.5C 229.304,117.285 225.137,132.951 220.5,148.5C 220.667,149.167 220.833,149.833 221,150.5C 221.278,149.584 221.778,148.918 222.5,148.5C 222.277,152.162 221.277,155.495 219.5,158.5C 218.833,157.167 218.167,155.833 217.5,154.5C 222.799,136.305 227.632,117.972 232,99.5C 232.258,93.6314 232.424,87.9647 232.5,82.5 Z"/></g>
<g><path style="opacity:1" fill="#636363" d="M 54.5,126.5 C 52.4559,125.969 50.7893,124.802 49.5,123C 51.7715,123.077 53.4382,124.243 54.5,126.5 Z"/></g>
<g><path style="opacity:1" fill="#414141" d="M 246.5,134.5 C 246.756,132.063 247.423,129.729 248.5,127.5C 248.03,126.537 247.363,126.537 246.5,127.5C 248.091,123.228 249.591,118.894 251,114.5C 251.688,121.74 250.188,128.406 246.5,134.5 Z"/></g>
<g><path style="opacity:1" fill="#505050" d="M 54.5,126.5 C 56.0269,126.427 57.0269,127.094 57.5,128.5C 55.9731,128.573 54.9731,127.906 54.5,126.5 Z"/></g>
<g><path style="opacity:1" fill="#8b8b8b" d="M 185.5,121.5 C 185.216,123.415 185.549,125.081 186.5,126.5C 186.5,130.167 186.5,133.833 186.5,137.5C 185.566,138.568 185.232,139.901 185.5,141.5C 184.167,134.833 184.167,128.167 185.5,121.5 Z"/></g>
<g><path style="opacity:1" fill="#5b5b5b" d="M 245.5,121.5 C 245.06,124.38 244.06,127.046 242.5,129.5C 242.167,129.5 241.833,129.5 241.5,129.5C 242.326,126.515 243.659,123.849 245.5,121.5 Z"/></g>
<g><path style="opacity:1" fill="#fbfbfb" d="M 1350.5,127.5 C 1377.7,126.529 1389.86,139.529 1387,166.5C 1381.49,181.009 1370.99,186.842 1355.5,184C 1354.33,182.833 1353.17,181.667 1352,180.5C 1350.54,162.902 1350.04,145.236 1350.5,127.5 Z"/></g>
<g><path style="opacity:1" fill="#7a7a7a" d="M 162.5,115.5 C 162.833,115.5 163.167,115.5 163.5,115.5C 163.955,127.442 165.955,139.108 169.5,150.5C 164.5,139.499 162.166,127.833 162.5,115.5 Z"/></g>
<g><path style="opacity:1" fill="#4a4a4a" d="M 241.5,129.5 C 241.573,131.027 240.906,132.027 239.5,132.5C 239.427,130.973 240.094,129.973 241.5,129.5 Z"/></g>
<g><path style="opacity:1" fill="#4f4f4f" d="M 57.5,128.5 C 61.1513,129.659 64.4846,131.326 67.5,133.5C 63.5799,132.873 60.2466,131.207 57.5,128.5 Z"/></g>
<g><path style="opacity:1" fill="#474747" d="M 254.5,128.5 C 253.833,130.833 253.167,133.167 252.5,135.5C 251.935,139.537 250.601,143.203 248.5,146.5C 250.962,138.357 252.462,130.024 253,121.5C 254.202,123.677 254.702,126.011 254.5,128.5 Z"/></g>
<g><path style="opacity:1" fill="#767676" d="M 418.5,131.5 C 410.016,132.493 401.349,132.826 392.5,132.5C 392.5,147.167 392.5,161.833 392.5,176.5C 391.504,161.676 391.171,146.676 391.5,131.5C 400.5,131.5 409.5,131.5 418.5,131.5 Z"/></g>
<g><path style="opacity:1" fill="#636363" d="M 222.5,73.5 C 226.446,88.4732 225.779,103.307 220.5,118C 220.667,118.5 220.833,119 221,119.5C 221.278,118.584 221.778,117.918 222.5,117.5C 218.846,126.457 215.513,135.457 212.5,144.5C 211.778,144.918 211.278,145.584 211,146.5C 210.768,145.263 210.268,144.263 209.5,143.5C 212.893,134.156 216.393,124.823 220,115.5C 223.244,104.376 224.244,93.0425 223,81.5C 222.28,88.2098 221.28,94.8765 220,101.5C 219.33,104.174 218.163,106.507 216.5,108.5C 219.107,101.405 220.44,94.0715 220.5,86.5C 221.167,82.1667 221.833,77.8333 222.5,73.5 Z"/></g>
<g><path style="opacity:1" fill="#494949" d="M 239.5,132.5 C 239.573,134.027 238.906,135.027 237.5,135.5C 237.427,133.973 238.094,132.973 239.5,132.5 Z"/></g>
<g><path style="opacity:1" fill="#4d4d4d" d="M 240.5,136.5 C 240.685,134.804 241.519,133.471 243,132.5C 243.279,134.412 242.446,135.746 240.5,136.5 Z"/></g>
<g><path style="opacity:1" fill="#515151" d="M 67.5,133.5 C 71.2217,134.017 74.8883,134.85 78.5,136C 74.4678,136.483 70.8012,135.65 67.5,133.5 Z"/></g>
<g><path style="opacity:1" fill="#656565" d="M 111.5,132.5 C 120.21,132.062 128.544,133.562 136.5,137C 133.153,136.783 129.82,136.116 126.5,135C 117.813,134.581 109.146,134.581 100.5,135C 104.312,134.205 107.979,133.371 111.5,132.5 Z"/></g>
<g><path style="opacity:1" fill="#616161" d="M 229.5,130.5 C 229.818,133.481 228.818,135.815 226.5,137.5C 226.707,134.759 227.707,132.426 229.5,130.5 Z"/></g>
<g><path style="opacity:1" fill="#8e8e8e" d="M 254.5,128.5 C 255.833,134.5 255.833,140.5 254.5,146.5C 254.672,145.508 254.338,144.842 253.5,144.5C 253.81,141.287 253.477,138.287 252.5,135.5C 253.167,133.167 253.833,130.833 254.5,128.5 Z"/></g>
<g><path style="opacity:1" fill="#2c2c2c" d="M 93.5,135.5 C 95.5273,135.338 97.5273,135.505 99.5,136C 93.235,137.484 86.9017,137.818 80.5,137C 85.0195,136.825 89.3528,136.325 93.5,135.5 Z"/></g>
<g><path style="opacity:1" fill="#4f4f4f" d="M 246.5,134.5 C 245.873,138.42 244.207,141.753 241.5,144.5C 242.659,140.849 244.326,137.515 246.5,134.5 Z"/></g>
<g><path style="opacity:1" fill="#424242" d="M 61.5,138.5 C 60.7611,138.369 60.0944,138.536 59.5,139C 60.2524,139.671 60.5858,140.504 60.5,141.5C 57.3432,138.85 55.5098,135.517 55,131.5C 57.0329,134.03 59.1996,136.363 61.5,138.5 Z"/></g>
<g><path style="opacity:1" fill="#424242" d="M 237.5,135.5 C 237.262,137.404 236.262,138.738 234.5,139.5C 234.738,137.596 235.738,136.262 237.5,135.5 Z"/></g>
<g><path style="opacity:1" fill="#464646" d="M 61.5,138.5 C 63.0269,138.427 64.0269,139.094 64.5,140.5C 62.9731,140.573 61.9731,139.906 61.5,138.5 Z"/></g>
<g><path style="opacity:1" fill="#5e5e5e" d="M 226.5,137.5 C 225.776,140.843 224.943,144.176 224,147.5C 223.617,148.056 223.117,148.389 222.5,148.5C 223.065,144.463 224.399,140.797 226.5,137.5 Z"/></g>
<g><path style="opacity:1" fill="#404040" d="M 64.5,140.5 C 66.153,140.66 67.4863,141.326 68.5,142.5C 66.6203,142.771 65.287,142.104 64.5,140.5 Z"/></g>
<g><path style="opacity:1" fill="#4a4a4a" d="M 149.5,144.5 C 147.577,144.205 145.91,143.372 144.5,142C 146.668,141.751 148.335,142.584 149.5,144.5 Z"/></g>
<g><path style="opacity:1" fill="#5b5b5b" d="M 240.5,136.5 C 238.234,140.436 235.234,143.769 231.5,146.5C 231.167,145.833 230.833,145.167 230.5,144.5C 231.08,142.251 232.413,140.585 234.5,139.5C 234.369,140.239 234.536,140.906 235,141.5C 236.704,139.627 238.537,137.96 240.5,136.5 Z"/></g>
<g><path style="opacity:1" fill="#4a4a4a" d="M 60.5,141.5 C 62.5869,142.585 63.9202,144.251 64.5,146.5C 62.4131,145.415 61.0798,143.749 60.5,141.5 Z"/></g>
<g><path style="opacity:1" fill="#4d4d4d" d="M 68.5,142.5 C 75.9803,144.863 83.647,146.196 91.5,146.5C 90.4324,147.434 89.099,147.768 87.5,147.5C 80.6053,147.528 74.272,145.861 68.5,142.5 Z"/></g>
<g><path style="opacity:1" fill="#434343" d="M 149.5,144.5 C 151.027,144.427 152.027,145.094 152.5,146.5C 150.973,146.573 149.973,145.906 149.5,144.5 Z"/></g>
<g><path style="opacity:1" fill="#464646" d="M 154.5,152.5 C 145.71,149.553 136.71,147.386 127.5,146C 118.165,146.165 108.832,146.665 99.5,147.5C 98.8333,147.5 98.5,147.167 98.5,146.5C 109.121,145.006 119.788,144.506 130.5,145C 139.097,145.976 147.097,148.476 154.5,152.5 Z"/></g>
<g><path style="opacity:1" fill="#444444" d="M 186.5,137.5 C 186.833,142.167 187.167,146.833 187.5,151.5C 188.623,153.979 188.623,156.312 187.5,158.5C 186.507,152.875 185.84,147.208 185.5,141.5C 185.232,139.901 185.566,138.568 186.5,137.5 Z"/></g>
<g><path style="opacity:1" fill="#3f3f3f" d="M 241.5,144.5 C 241.573,146.027 240.906,147.027 239.5,147.5C 239.427,145.973 240.094,144.973 241.5,144.5 Z"/></g>
<g><path style="opacity:1" fill="#888888" d="M 91.5,146.5 C 93.8333,146.5 96.1667,146.5 98.5,146.5C 98.5,147.167 98.8333,147.5 99.5,147.5C 95.5,148.833 91.5,148.833 87.5,147.5C 89.099,147.768 90.4324,147.434 91.5,146.5 Z"/></g>
<g><path style="opacity:1" fill="#404040" d="M 209.5,143.5 C 210.268,144.263 210.768,145.263 211,146.5C 211.278,145.584 211.778,144.918 212.5,144.5C 212.326,146.861 211.993,149.194 211.5,151.5C 210.71,150.391 210.21,149.058 210,147.5C 208.594,153.442 208.261,159.442 209,165.5C 209.176,161.312 209.676,157.312 210.5,153.5C 210.5,159.5 210.5,165.5 210.5,171.5C 210.5,172.167 210.5,172.833 210.5,173.5C 209.207,172.158 208.374,170.491 208,168.5C 207.099,160.056 207.599,151.722 209.5,143.5 Z"/></g>
<g><path style="opacity:1" fill="#535353" d="M 64.5,146.5 C 67.1667,148.5 69.5,150.833 71.5,153.5C 68.1667,152.167 65.8333,149.833 64.5,146.5 Z"/></g>
<g><path style="opacity:1" fill="#3a3a3a" d="M 239.5,147.5 C 239.573,149.027 238.906,150.027 237.5,150.5C 237.427,148.973 238.094,147.973 239.5,147.5 Z"/></g>
<g><path style="opacity:1" fill="#4a4a4a" d="M 253.5,144.5 C 254.338,144.842 254.672,145.508 254.5,146.5C 254.231,151.264 252.898,155.597 250.5,159.5C 251.883,154.585 252.883,149.585 253.5,144.5 Z"/></g>
<g><path style="opacity:1" fill="#585858" d="M 71.5,153.5 C 74.0892,154.419 76.0892,156.086 77.5,158.5C 74.9108,157.581 72.9108,155.914 71.5,153.5 Z"/></g>
<g><path style="opacity:1" fill="#454545" d="M 256.5,166.5 C 258.573,162.709 259.74,158.709 260,154.5C 258.884,157.756 257.051,160.422 254.5,162.5C 256.973,157.553 259.473,152.553 262,147.5C 263.1,154.781 261.267,161.114 256.5,166.5 Z"/></g>
<g><path style="opacity:1" fill="#4d4d4d" d="M 237.5,150.5 C 237.586,151.496 237.252,152.329 236.5,153C 237.833,153 239.167,153 240.5,153C 238.601,155.988 236.601,158.821 234.5,161.5C 237.36,155.67 236.193,155.003 231,159.5C 230.833,159.167 230.667,158.833 230.5,158.5C 232.851,155.761 235.184,153.095 237.5,150.5 Z"/></g>
<g><path style="opacity:1" fill="#2d2d2d" d="M 230.5,144.5 C 230.833,145.167 231.167,145.833 231.5,146.5C 226.2,154.73 222.866,163.73 221.5,173.5C 220.566,172.432 220.232,171.099 220.5,169.5C 221.387,160.077 224.721,151.743 230.5,144.5 Z"/></g>
<g><path style="opacity:1" fill="#b3b3b3" d="M 124.5,156.5 C 124.5,156.833 124.5,157.167 124.5,157.5C 112.747,158.375 101.081,157.541 89.5,155C 101.091,156.191 112.758,156.691 124.5,156.5 Z"/></g>
<g><path style="opacity:1" fill="#747474" d="M 124.5,157.5 C 124.5,157.167 124.5,156.833 124.5,156.5C 133.25,156.09 141.916,156.59 150.5,158C 141.859,157.748 133.192,157.581 124.5,157.5 Z"/></g>
<g><path style="opacity:1" fill="#5b5b5b" d="M 178.5,147.5 C 178.833,147.5 179.167,147.5 179.5,147.5C 180.324,153.952 181.657,160.286 183.5,166.5C 182.105,167.815 181.105,167.481 180.5,165.5C 181.043,165.44 181.376,165.107 181.5,164.5C 179.745,158.97 178.745,153.304 178.5,147.5 Z"/></g>
<g><path style="opacity:1" fill="#515151" d="M 245.5,152.5 C 244.59,155.992 242.924,158.992 240.5,161.5C 241.41,158.008 243.076,155.008 245.5,152.5 Z"/></g>
<g><path style="opacity:1" fill="#4f4f4f" d="M 77.5,158.5 C 79.4233,158.795 81.0899,159.628 82.5,161C 80.332,161.249 78.6653,160.416 77.5,158.5 Z"/></g>
<g><path style="opacity:1" fill="#626262" d="M 171.5,163.5 C 172.338,163.842 172.672,164.508 172.5,165.5C 165.564,163.244 158.564,161.078 151.5,159C 158.332,159.54 164.998,161.04 171.5,163.5 Z"/></g>
<g><path style="opacity:1" fill="#9b9b9b" d="M 195.5,135.5 C 196.847,146.335 197.681,157.335 198,168.5C 196.234,157.571 195.4,146.571 195.5,135.5 Z"/></g>
<g><path style="opacity:1" fill="#121212" d="M 217.5,154.5 C 218.167,155.833 218.833,157.167 219.5,158.5C 219.108,160.179 218.608,161.846 218,163.5C 217.502,160.518 217.335,157.518 217.5,154.5 Z"/></g>
<g><path style="opacity:1" fill="#aeaeae" d="M 211.5,151.5 C 211.672,152.492 211.338,153.158 210.5,153.5C 209.676,157.312 209.176,161.312 209,165.5C 208.261,159.442 208.594,153.442 210,147.5C 210.21,149.058 210.71,150.391 211.5,151.5 Z"/></g>
<g><path style="opacity:1" fill="#545454" d="M 84.5,163.5 C 85.7211,162.535 87.0544,162.702 88.5,164C 87.0715,164.579 85.7382,164.412 84.5,163.5 Z"/></g>
<g><path style="opacity:1" fill="#5e5e5e" d="M 194.5,173.5 C 193.442,174.6 192.608,175.934 192,177.5C 191.283,176.956 190.783,176.289 190.5,175.5C 191.097,175.265 191.43,174.765 191.5,174C 190.102,169.575 189.102,165.075 188.5,160.5C 189.222,160.918 189.722,161.584 190,162.5C 190.167,161.667 190.333,160.833 190.5,160C 189.574,156.861 189.408,153.694 190,150.5C 191.311,158.223 192.811,165.89 194.5,173.5 Z"/></g>
<g><path style="opacity:1" fill="#494949" d="M 240.5,161.5 C 239.008,165.818 237.008,169.818 234.5,173.5C 235.46,168.914 237.46,164.914 240.5,161.5 Z"/></g>
<g><path style="opacity:1" fill="#4a4a4a" d="M 247.5,165.5 C 247.573,167.027 246.906,168.027 245.5,168.5C 245.427,166.973 246.094,165.973 247.5,165.5 Z"/></g>
<g><path style="opacity:1" fill="#606060" d="M 107.5,169.5 C 107.5,169.833 107.5,170.167 107.5,170.5C 101.553,170.096 95.8865,168.596 90.5,166C 96.151,166.994 101.818,168.161 107.5,169.5 Z"/></g>
<g><path style="opacity:1" fill="#3d3d3d" d="M 254.5,162.5 C 251.088,168.76 246.088,172.926 239.5,175C 240.998,172.336 242.998,170.17 245.5,168.5C 245.369,169.239 245.536,169.906 246,170.5C 248.703,167.629 251.536,164.962 254.5,162.5 Z"/></g>
<g><path style="opacity:1" fill="#4a4a4a" d="M 107.5,170.5 C 107.5,170.167 107.5,169.833 107.5,169.5C 118.641,169.771 129.641,168.938 140.5,167C 138.833,168.167 137.167,169.333 135.5,170.5C 126.249,170.348 116.916,170.348 107.5,170.5 Z"/></g>
<g><path style="opacity:1" fill="#474747" d="M 256.5,166.5 C 256.369,167.239 256.536,167.906 257,168.5C 257.654,167.304 258.154,167.304 258.5,168.5C 256.383,174.427 253.05,179.427 248.5,183.5C 250.574,180.686 252.074,177.686 253,174.5C 250.221,177.297 247.054,179.13 243.5,180C 248.064,175.605 252.398,171.105 256.5,166.5 Z"/></g>
<g><path style="opacity:1" fill="#484848" d="M 185.5,176.5 C 187.262,177.262 188.262,178.596 188.5,180.5C 181.225,176.928 173.559,174.428 165.5,173C 172.2,172.758 178.534,174.258 184.5,177.5C 185.107,177.376 185.44,177.043 185.5,176.5 Z"/></g>
<g><path style="opacity:1" fill="#959595" d="M 220.5,169.5 C 220.232,171.099 220.566,172.432 221.5,173.5C 221.785,175.288 221.452,176.955 220.5,178.5C 219.197,175.355 219.197,172.355 220.5,169.5 Z"/></g>
<g><path style="opacity:1" fill="#484848" d="M 129.5,171.5 C 130.552,171.351 131.552,171.517 132.5,172C 129.911,173.197 127.244,174.197 124.5,175C 132.887,174.755 141.22,173.755 149.5,172C 154.167,171.333 158.833,171.333 163.5,172C 150.216,173.957 136.883,175.457 123.5,176.5C 120.167,176.333 116.833,176.167 113.5,176C 119.137,175.171 124.471,173.671 129.5,171.5 Z"/></g>
<g><path style="opacity:1" fill="#b8b8b8" d="M 214.5,185.5 C 213.993,181.215 212.66,177.215 210.5,173.5C 210.5,172.833 210.5,172.167 210.5,171.5C 211.268,172.263 211.768,173.263 212,174.5C 212.402,166.477 213.068,158.477 214,150.5C 213.496,162.152 213.663,173.819 214.5,185.5 Z"/></g>
<g><path style="opacity:1" fill="#414141" d="M 289.5,184.5 C 287.052,183.527 284.385,183.194 281.5,183.5C 274.71,180.958 267.71,180.125 260.5,181C 257.664,181.921 254.998,183.088 252.5,184.5C 256.039,180.594 260.539,178.927 266,179.5C 271.933,179.942 277.766,180.942 283.5,182.5C 287.586,182.318 291.419,181.318 295,179.5C 294.73,182.596 292.897,184.263 289.5,184.5 Z"/></g>
<g><path style="opacity:1" fill="#f6f6f6" d="M 281.5,183.5 C 276.676,183.965 271.676,184.132 266.5,184C 263.975,184.424 261.975,185.59 260.5,187.5C 257.833,188.167 256.167,189.833 255.5,192.5C 254.662,192.842 254.328,193.508 254.5,194.5C 252.992,196.181 251.992,198.181 251.5,200.5C 251.134,205.716 251.968,210.716 254,215.5C 254.464,214.906 254.631,214.239 254.5,213.5C 254.833,213.5 255.167,213.5 255.5,213.5C 255.369,214.239 255.536,214.906 256,215.5C 257.18,212.479 258.346,209.479 259.5,206.5C 261.5,205.167 263.167,203.5 264.5,201.5C 269.848,198.66 275.515,197.16 281.5,197C 278.761,198.026 276.428,199.526 274.5,201.5C 272.973,201.427 271.973,202.094 271.5,203.5C 267.833,205.167 265.167,207.833 263.5,211.5C 261.026,213.898 259.692,216.898 259.5,220.5C 258.743,224.121 258.409,227.787 258.5,231.5C 258.66,233.199 258.494,234.866 258,236.5C 256.961,235.756 256.461,234.756 256.5,233.5C 255.15,230.428 253.817,227.428 252.5,224.5C 252.657,225.873 252.49,227.207 252,228.5C 251.617,227.944 251.117,227.611 250.5,227.5C 248.403,222.966 246.569,218.3 245,213.5C 244.667,214.5 244.333,215.5 244,216.5C 242.85,214.246 242.516,211.913 243,209.5C 243.333,210.5 243.667,211.5 244,212.5C 244.293,206.133 244.793,199.8 245.5,193.5C 245.328,192.508 245.662,191.842 246.5,191.5C 247.906,191.027 248.573,190.027 248.5,188.5C 250.167,187.5 251.5,186.167 252.5,184.5C 254.998,183.088 257.664,181.921 260.5,181C 267.71,180.125 274.71,180.958 281.5,183.5 Z"/></g>
<g><path style="opacity:1" fill="#f7f7f7" d="M 194.5,188.5 C 195.965,189.737 197.632,190.737 199.5,191.5C 201.368,192.263 203.035,193.263 204.5,194.5C 204.265,195.097 203.765,195.43 203,195.5C 189.188,190.144 175.021,188.644 160.5,191C 175.94,189.972 190.94,192.139 205.5,197.5C 209.02,198.353 211.687,200.353 213.5,203.5C 204.398,200.65 195.065,199.317 185.5,199.5C 177.147,201.171 168.814,203.004 160.5,205C 168.939,204.31 177.272,202.81 185.5,200.5C 195.916,200.583 205.916,202.583 215.5,206.5C 216.922,206.709 218.255,207.209 219.5,208C 222.396,211.066 225.396,213.899 228.5,216.5C 219.141,212.975 209.474,211.808 199.5,213C 197.509,213.374 195.842,214.207 194.5,215.5C 194.158,216.338 193.492,216.672 192.5,216.5C 190.973,216.427 189.973,217.094 189.5,218.5C 185.492,220.837 181.492,223.17 177.5,225.5C 172.876,225.763 168.542,226.763 164.5,228.5C 163.209,228.737 162.209,228.404 161.5,227.5C 166.761,225.201 171.761,222.368 176.5,219C 172.617,220.46 168.617,221.627 164.5,222.5C 162.167,222.5 159.833,222.5 157.5,222.5C 167.054,217.227 177.054,212.727 187.5,209C 185.5,208.333 183.5,208.333 181.5,209C 170.711,213.707 159.544,217.207 148,219.5C 143.692,219.176 139.859,217.676 136.5,215C 145.345,216.189 154.011,215.189 162.5,212C 163.056,211.617 163.389,211.117 163.5,210.5C 154.769,213.98 145.769,214.98 136.5,213.5C 134.132,212.217 131.965,210.55 130,208.5C 129.601,208.728 129.435,209.062 129.5,209.5C 128.285,208.221 128.618,207.221 130.5,206.5C 135.278,208.612 140.278,209.945 145.5,210.5C 151.245,210.789 156.912,210.289 162.5,209C 156.86,209.132 151.193,209.299 145.5,209.5C 140.686,208.507 136.019,207.007 131.5,205C 145.349,206.37 158.016,203.037 169.5,195C 162.304,196.796 154.971,198.296 147.5,199.5C 136.871,200.269 126.538,198.935 116.5,195.5C 115.486,194.326 114.153,193.66 112.5,193.5C 111.508,193.672 110.842,193.338 110.5,192.5C 108.747,190.777 106.747,189.277 104.5,188C 103.304,187.346 103.304,186.846 104.5,186.5C 110.174,189.235 116.174,190.568 122.5,190.5C 130.716,190.143 138.049,188.81 144.5,186.5C 144.842,185.662 145.508,185.328 146.5,185.5C 146.917,186.124 147.584,186.457 148.5,186.5C 164.063,182.16 179.397,182.827 194.5,188.5 Z"/></g>
<g><path style="opacity:1" fill="#4b4b4b" d="M 194.5,188.5 C 179.397,182.827 164.063,182.16 148.5,186.5C 147.584,186.457 146.917,186.124 146.5,185.5C 161.21,181.367 175.876,181.534 190.5,186C 192.066,186.608 193.4,187.442 194.5,188.5 Z"/></g>
<g><path style="opacity:1" fill="#5e5e5e" d="M 202.5,186.5 C 201.29,186.068 200.29,185.401 199.5,184.5C 200.097,184.265 200.43,183.765 200.5,183C 198.965,178.595 198.465,174.095 199,169.5C 199.954,175.231 201.121,180.898 202.5,186.5 Z"/></g>
<g><path style="opacity:1" fill="#616161" d="M 232.5,165.5 C 228.392,175.56 227.559,185.894 230,196.5C 230.333,191.833 230.667,187.167 231,182.5C 231.505,179.135 232.672,176.135 234.5,173.5C 231.062,183.411 230.729,193.411 233.5,203.5C 233.154,204.696 232.654,204.696 232,203.5C 224.658,190.647 224.825,177.981 232.5,165.5 Z"/></g>
<g><path style="opacity:1" fill="#434343" d="M 252.5,184.5 C 251.5,186.167 250.167,187.5 248.5,188.5C 248.833,186.167 250.167,184.833 252.5,184.5 Z"/></g>
<g><path style="opacity:1" fill="#f0f0f0" d="M 264.5,191.5 C 261.167,192.833 258.833,195.167 257.5,198.5C 255.461,199.911 254.461,201.911 254.5,204.5C 253.41,201.319 253.41,197.985 254.5,194.5C 254.328,193.508 254.662,192.842 255.5,192.5C 257.5,191.167 259.167,189.5 260.5,187.5C 265.683,185.65 271.017,185.15 276.5,186C 273.639,187.246 270.639,188.246 267.5,189C 266.058,189.377 265.058,190.21 264.5,191.5 Z"/></g>
<g><path style="opacity:1" fill="#4c4c4c" d="M 248.5,183.5 C 247.92,185.749 246.587,187.415 244.5,188.5C 245.08,186.251 246.413,184.585 248.5,183.5 Z"/></g>
<g><path style="opacity:1" fill="#666666" d="M 281.5,183.5 C 284.385,183.194 287.052,183.527 289.5,184.5C 288.192,185.232 286.858,186.066 285.5,187C 287.256,187.202 288.922,187.702 290.5,188.5C 284.242,190.362 277.909,192.029 271.5,193.5C 275.163,191.405 279.163,189.905 283.5,189C 276.918,188.124 270.585,188.957 264.5,191.5C 265.058,190.21 266.058,189.377 267.5,189C 270.639,188.246 273.639,187.246 276.5,186C 271.017,185.15 265.683,185.65 260.5,187.5C 261.975,185.59 263.975,184.424 266.5,184C 271.676,184.132 276.676,183.965 281.5,183.5 Z"/></g>
<g><path style="opacity:1" fill="#6f6f6f" d="M 476.5,187.5 C 474.735,188.461 472.735,188.795 470.5,188.5C 470.5,189.5 470.5,190.5 470.5,191.5C 469.566,190.432 469.232,189.099 469.5,187.5C 471.833,187.5 474.167,187.5 476.5,187.5 Z"/></g>
<g><path style="opacity:1" fill="#767676" d="M 1161.5,187.5 C 1159.74,188.461 1157.74,188.795 1155.5,188.5C 1155.5,189.5 1155.5,190.5 1155.5,191.5C 1154.57,190.432 1154.23,189.099 1154.5,187.5C 1156.83,187.5 1159.17,187.5 1161.5,187.5 Z"/></g>
<g><path style="opacity:1" fill="#5c5c5c" d="M 260.5,187.5 C 259.167,189.5 257.5,191.167 255.5,192.5C 256.167,189.833 257.833,188.167 260.5,187.5 Z"/></g>
<g><path style="opacity:1" fill="#5c5c5c" d="M 144.5,186.5 C 138.049,188.81 130.716,190.143 122.5,190.5C 116.174,190.568 110.174,189.235 104.5,186.5C 103.304,186.846 103.304,187.346 104.5,188C 106.747,189.277 108.747,190.777 110.5,192.5C 103.527,189.042 97.5267,184.209 92.5,178C 94.92,178.372 96.92,179.705 98.5,182C 109.716,188.216 121.716,190.216 134.5,188C 137.793,187.174 141.126,186.674 144.5,186.5 Z"/></g>
<g><path style="opacity:1" fill="#767676" d="M 204.5,194.5 C 206.481,195.105 206.815,196.105 205.5,197.5C 190.94,192.139 175.94,189.972 160.5,191C 175.021,188.644 189.188,190.144 203,195.5C 203.765,195.43 204.265,195.097 204.5,194.5 Z"/></g>
<g><path style="opacity:1" fill="#393939" d="M 248.5,188.5 C 248.573,190.027 247.906,191.027 246.5,191.5C 246.427,189.973 247.094,188.973 248.5,188.5 Z"/></g>
<g><path style="opacity:1" fill="#606060" d="M 194.5,188.5 C 195.5,188.5 196.5,188.5 197.5,188.5C 198.906,188.973 199.573,189.973 199.5,191.5C 197.632,190.737 195.965,189.737 194.5,188.5 Z"/></g>
<g><path style="opacity:1" fill="#808080" d="M 214.5,185.5 C 215.344,188.345 216.01,191.345 216.5,194.5C 216.167,194.5 215.833,194.5 215.5,194.5C 214.523,191.713 214.19,188.713 214.5,185.5 Z"/></g>
<g><path style="opacity:1" fill="#3a3a3a" d="M 112.5,193.5 C 114.153,193.66 115.486,194.326 116.5,195.5C 114.62,195.771 113.287,195.104 112.5,193.5 Z"/></g>
<g><path style="opacity:1" fill="#707070" d="M 226.5,206.5 C 226.167,206.5 225.833,206.5 225.5,206.5C 224.71,205.391 224.21,204.058 224,202.5C 223.333,195.167 223.333,187.833 224,180.5C 224.037,189.305 224.871,197.971 226.5,206.5 Z"/></g>
<g><path style="opacity:1" fill="#5f5f5f" d="M 264.5,191.5 C 262.5,194.167 260.167,196.5 257.5,198.5C 258.833,195.167 261.167,192.833 264.5,191.5 Z"/></g>
<g><path style="opacity:1" fill="#484848" d="M 271.5,193.5 C 269.819,195.008 267.819,196.008 265.5,196.5C 266.911,194.461 268.911,193.461 271.5,193.5 Z"/></g>
<g><path style="opacity:1" fill="#4e4e4e" d="M 274.5,201.5 C 276.428,199.526 278.761,198.026 281.5,197C 275.515,197.16 269.848,198.66 264.5,201.5C 272.511,195.748 281.511,193.582 291.5,195C 285.771,197.075 280.104,199.242 274.5,201.5 Z"/></g>
<g><path style="opacity:1" fill="#5a5a5a" d="M 265.5,196.5 C 264.746,198.446 263.412,199.279 261.5,199C 262.471,197.519 263.804,196.685 265.5,196.5 Z"/></g>
<g><path style="opacity:1" fill="#6f6f6f" d="M 116.5,195.5 C 126.538,198.935 136.871,200.269 147.5,199.5C 147.5,200.167 147.833,200.5 148.5,200.5C 139.135,201.995 129.801,201.162 120.5,198C 118.934,197.392 117.6,196.558 116.5,195.5 Z"/></g>
<g><path style="opacity:1" fill="#484848" d="M 145.5,209.5 C 145.5,209.833 145.5,210.167 145.5,210.5C 140.278,209.945 135.278,208.612 130.5,206.5C 130.5,206.167 130.5,205.833 130.5,205.5C 129.89,204.609 129.557,203.609 129.5,202.5C 139.055,204.252 148.388,203.418 157.5,200C 154.525,199.956 151.525,200.123 148.5,200.5C 147.833,200.5 147.5,200.167 147.5,199.5C 154.971,198.296 162.304,196.796 169.5,195C 158.016,203.037 145.349,206.37 131.5,205C 136.019,207.007 140.686,208.507 145.5,209.5 Z"/></g>
<g><path style="opacity:1" fill="#8c8c8c" d="M 239.5,216.5 C 238.833,216.5 238.5,216.833 238.5,217.5C 237.344,209.677 237.177,201.677 238,193.5C 238.232,201.214 238.732,208.881 239.5,216.5 Z"/></g>
<g><path style="opacity:1" fill="#444444" d="M 257.5,198.5 C 256.545,200.746 255.878,203.079 255.5,205.5C 254.833,205.5 254.5,205.167 254.5,204.5C 254.461,201.911 255.461,199.911 257.5,198.5 Z"/></g>
<g><path style="opacity:1" fill="#484848" d="M 185.5,200.5 C 185.5,200.167 185.5,199.833 185.5,199.5C 195.065,199.317 204.398,200.65 213.5,203.5C 215.048,203.821 215.715,204.821 215.5,206.5C 205.916,202.583 195.916,200.583 185.5,200.5 Z"/></g>
<g><path style="opacity:1" fill="#202020" d="M 129.5,202.5 C 129.557,203.609 129.89,204.609 130.5,205.5C 128.391,204.609 126.391,203.442 124.5,202C 126.107,202.019 127.774,202.185 129.5,202.5 Z"/></g>
<g><path style="opacity:1" fill="#767676" d="M 185.5,199.5 C 185.5,199.833 185.5,200.167 185.5,200.5C 177.272,202.81 168.939,204.31 160.5,205C 168.814,203.004 177.147,201.171 185.5,199.5 Z"/></g>
<g><path style="opacity:1" fill="#4c4c4c" d="M 274.5,201.5 C 274.027,202.906 273.027,203.573 271.5,203.5C 271.973,202.094 272.973,201.427 274.5,201.5 Z"/></g>
<g><path style="opacity:1" fill="#9d9d9d" d="M 254.5,194.5 C 253.41,197.985 253.41,201.319 254.5,204.5C 254.5,205.167 254.833,205.5 255.5,205.5C 256.167,205.167 256.833,204.833 257.5,204.5C 257.672,205.492 257.338,206.158 256.5,206.5C 255.532,208.607 255.198,210.941 255.5,213.5C 255.167,213.5 254.833,213.5 254.5,213.5C 254.663,211.143 254.497,208.81 254,206.5C 253.667,207.167 253.333,207.833 253,208.5C 252.817,205.635 252.317,202.969 251.5,200.5C 251.992,198.181 252.992,196.181 254.5,194.5 Z"/></g>
<g><path style="opacity:1" fill="#555555" d="M 257.5,204.5 C 257.461,203.244 257.961,202.244 259,201.5C 259.585,202.998 259.085,203.998 257.5,204.5 Z"/></g>
<g><path style="opacity:1" fill="#595959" d="M 264.5,201.5 C 263.167,203.5 261.5,205.167 259.5,206.5C 260.167,203.833 261.833,202.167 264.5,201.5 Z"/></g>
<g><path style="opacity:1" fill="#efefef" d="M 284.5,209.5 C 282.326,209.75 280.659,210.75 279.5,212.5C 277.596,212.738 276.262,213.738 275.5,215.5C 272.5,216.5 270.5,218.5 269.5,221.5C 265.724,225.051 263.558,229.384 263,234.5C 265.392,231.723 267.892,229.057 270.5,226.5C 280.371,221.461 290.705,220.294 301.5,223C 291.38,223.049 282.046,225.549 273.5,230.5C 270.484,231.343 267.817,232.843 265.5,235C 270.234,234.355 275.067,233.855 280,233.5C 283.258,233.493 286.425,233.993 289.5,235C 284.833,235.333 280.167,235.667 275.5,236C 273.392,236.36 271.392,237.027 269.5,238C 275.142,239.66 280.809,241.16 286.5,242.5C 287.429,243.315 288.429,244.148 289.5,245C 280.522,244.912 279.855,246.079 287.5,248.5C 288.476,249.815 289.476,251.148 290.5,252.5C 290.167,252.833 289.833,253.167 289.5,253.5C 287.362,252.757 285.196,252.09 283,251.5C 281.541,251.808 280.374,252.475 279.5,253.5C 277.589,252.925 275.922,251.925 274.5,250.5C 274.866,249.305 275.699,248.639 277,248.5C 284.329,249.493 284.329,249.16 277,247.5C 275.467,247.773 273.967,248.106 272.5,248.5C 268.455,245.055 264.288,241.722 260,238.5C 259.503,236.19 259.337,233.857 259.5,231.5C 261.151,229.598 261.484,227.598 260.5,225.5C 261.758,223.313 262.758,220.98 263.5,218.5C 267.526,214.805 271.526,211.138 275.5,207.5C 275.842,206.662 276.508,206.328 277.5,206.5C 283.058,204.811 288.725,204.311 294.5,205C 290.771,205.844 287.437,207.344 284.5,209.5 Z"/></g>
<g><path style="opacity:1" fill="#282828" d="M 163.5,210.5 C 163.918,209.778 164.584,209.278 165.5,209C 164.833,208.667 164.167,208.333 163.5,208C 167.15,206.555 170.817,205.555 174.5,205C 171.14,207.546 167.474,209.379 163.5,210.5 Z"/></g>
<g><path style="opacity:1" fill="#535353" d="M 284.5,209.5 C 287.437,207.344 290.771,205.844 294.5,205C 288.725,204.311 283.058,204.811 277.5,206.5C 278.842,205.207 280.509,204.374 282.5,204C 288.917,203.13 295.251,203.464 301.5,205C 295.678,206.038 290.011,207.538 284.5,209.5 Z"/></g>
<g><path style="opacity:1" fill="#4d4d4d" d="M 271.5,203.5 C 269.167,206.5 266.5,209.167 263.5,211.5C 265.167,207.833 267.833,205.167 271.5,203.5 Z"/></g>
<g><path style="opacity:1" fill="#1b1b1b" d="M 145.5,210.5 C 145.5,210.167 145.5,209.833 145.5,209.5C 151.193,209.299 156.86,209.132 162.5,209C 156.912,210.289 151.245,210.789 145.5,210.5 Z"/></g>
<g><path style="opacity:1" fill="#3a3a3a" d="M 256.5,206.5 C 256.351,207.552 256.517,208.552 257,209.5C 257.377,208.058 258.21,207.058 259.5,206.5C 258.346,209.479 257.18,212.479 256,215.5C 255.536,214.906 255.369,214.239 255.5,213.5C 255.198,210.941 255.532,208.607 256.5,206.5 Z"/></g>
<g><path style="opacity:1" fill="#353535" d="M 251.5,200.5 C 252.317,202.969 252.817,205.635 253,208.5C 253.333,207.833 253.667,207.167 254,206.5C 254.497,208.81 254.663,211.143 254.5,213.5C 254.631,214.239 254.464,214.906 254,215.5C 251.968,210.716 251.134,205.716 251.5,200.5 Z"/></g>
<g><path style="opacity:1" fill="#2a2a2a" d="M 136.5,213.5 C 135.508,213.328 134.842,213.662 134.5,214.5C 132.5,213.167 130.833,211.5 129.5,209.5C 129.435,209.062 129.601,208.728 130,208.5C 131.965,210.55 134.132,212.217 136.5,213.5 Z"/></g>
<g><path style="opacity:1" fill="#5c5c5c" d="M 275.5,207.5 C 271.526,211.138 267.526,214.805 263.5,218.5C 266.223,213.444 270.223,209.777 275.5,207.5 Z"/></g>
<g><path style="opacity:1" fill="#4d4d4d" d="M 284.5,209.5 C 283.341,211.25 281.674,212.25 279.5,212.5C 280.659,210.75 282.326,209.75 284.5,209.5 Z"/></g>
<g><path style="opacity:1" fill="#3d3d3d" d="M 228.5,216.5 C 229.338,216.842 229.672,217.508 229.5,218.5C 218.157,213.641 206.49,212.641 194.5,215.5C 195.842,214.207 197.509,213.374 199.5,213C 209.474,211.808 219.141,212.975 228.5,216.5 Z"/></g>
<g><path style="opacity:1" fill="#616161" d="M 279.5,212.5 C 278.738,214.262 277.404,215.262 275.5,215.5C 276.262,213.738 277.596,212.738 279.5,212.5 Z"/></g>
<g><path style="opacity:1" fill="#a4a4a4" d="M 252.5,224.5 C 249.293,216.913 248.127,208.913 249,200.5C 249.749,208.577 250.916,216.577 252.5,224.5 Z"/></g>
<g><path style="opacity:1" fill="#515151" d="M 243.5,190.5 C 241.768,196.39 241.268,202.39 242,208.5C 242.333,205.5 242.667,202.5 243,199.5C 243.24,197.148 244.073,195.148 245.5,193.5C 244.793,199.8 244.293,206.133 244,212.5C 243.667,211.5 243.333,210.5 243,209.5C 242.516,211.913 242.85,214.246 244,216.5C 244.333,215.5 244.667,214.5 245,213.5C 246.569,218.3 248.403,222.966 250.5,227.5C 248.871,226.375 247.371,225.041 246,223.5C 239.871,212.716 239.038,201.716 243.5,190.5 Z"/></g>
<g><path style="opacity:1" fill="#494949" d="M 275.5,215.5 C 273.833,217.833 271.833,219.833 269.5,221.5C 270.5,218.5 272.5,216.5 275.5,215.5 Z"/></g>
<g><path style="opacity:1" fill="#4a4a4a" d="M 157.5,222.5 C 156.391,222.443 155.391,222.11 154.5,221.5C 156.74,220.736 159.073,219.902 161.5,219C 155.596,220.122 149.596,220.455 143.5,220C 139.8,219.157 136.8,217.324 134.5,214.5C 134.842,213.662 135.508,213.328 136.5,213.5C 145.769,214.98 154.769,213.98 163.5,210.5C 163.389,211.117 163.056,211.617 162.5,212C 154.011,215.189 145.345,216.189 136.5,215C 139.859,217.676 143.692,219.176 148,219.5C 159.544,217.207 170.711,213.707 181.5,209C 183.5,208.333 185.5,208.333 187.5,209C 177.054,212.727 167.054,217.227 157.5,222.5 Z"/></g>
<g><path style="opacity:1" fill="#545454" d="M 192.5,216.5 C 192.027,217.906 191.027,218.573 189.5,218.5C 189.973,217.094 190.973,216.427 192.5,216.5 Z"/></g>
<g><path style="opacity:1" fill="#494949" d="M 207.5,218.5 C 214.589,218.116 221.589,218.616 228.5,220C 218.497,218.679 208.664,219.512 199,222.5C 197.238,222.056 197.405,221.556 199.5,221C 202.31,220.218 204.977,219.384 207.5,218.5 Z"/></g>
<g><path style="opacity:1" fill="#111111" d="M 154.5,221.5 C 155.391,222.11 156.391,222.443 157.5,222.5C 159.833,222.5 162.167,222.5 164.5,222.5C 165.167,222.5 165.5,222.833 165.5,223.5C 160.087,223.771 154.754,223.271 149.5,222C 151.134,221.506 152.801,221.34 154.5,221.5 Z"/></g>
<g><path style="opacity:1" fill="#525252" d="M 161.5,227.5 C 159.571,227.769 157.905,227.269 156.5,226C 159.628,225.159 162.628,224.325 165.5,223.5C 165.5,222.833 165.167,222.5 164.5,222.5C 168.617,221.627 172.617,220.46 176.5,219C 171.761,222.368 166.761,225.201 161.5,227.5 Z"/></g>
<g><path style="opacity:1" fill="#353535" d="M 263.5,211.5 C 261.93,214.7 261.096,218.033 261,221.5C 261.377,220.058 262.21,219.058 263.5,218.5C 262.758,220.98 261.758,223.313 260.5,225.5C 259.549,224.081 259.216,222.415 259.5,220.5C 259.692,216.898 261.026,213.898 263.5,211.5 Z"/></g>
<g><path style="opacity:1" fill="#484848" d="M 273.5,230.5 C 282.046,225.549 291.38,223.049 301.5,223C 290.705,220.294 280.371,221.461 270.5,226.5C 273.32,223.919 276.654,222.086 280.5,221C 290.1,219.717 299.433,220.717 308.5,224C 296.385,223.923 284.718,226.09 273.5,230.5 Z"/></g>
<g><path style="opacity:1" fill="#4b4b4b" d="M 189.5,218.5 C 186.45,222.362 182.45,224.695 177.5,225.5C 181.492,223.17 185.492,220.837 189.5,218.5 Z"/></g>
<g><path style="opacity:1" fill="#5f5f5f" d="M 177.5,225.5 C 173.555,227.626 169.222,228.626 164.5,228.5C 168.542,226.763 172.876,225.763 177.5,225.5 Z"/></g>
<g><path style="opacity:1" fill="#505050" d="M 269.5,221.5 C 268.559,223.466 267.559,225.466 266.5,227.5C 266.667,227.833 266.833,228.167 267,228.5C 267.816,227.177 268.983,226.511 270.5,226.5C 267.892,229.057 265.392,231.723 263,234.5C 263.558,229.384 265.724,225.051 269.5,221.5 Z"/></g>
<g><path style="opacity:1" fill="#7c7c7c" d="M 222.5,228.5 C 228.846,227.813 235.179,227.479 241.5,227.5C 243.481,228.105 243.815,229.105 242.5,230.5C 236.225,229.582 229.892,229.249 223.5,229.5C 223.5,228.833 223.167,228.5 222.5,228.5 Z"/></g>
<g><path style="opacity:1" fill="#4e4e4e" d="M 222.5,228.5 C 223.167,228.5 223.5,228.833 223.5,229.5C 219.44,229.485 215.44,229.985 211.5,231C 203.724,233.373 196.057,235.706 188.5,238C 199.199,232.488 210.533,229.321 222.5,228.5 Z"/></g>
<g><path style="opacity:1" fill="#a1a1a1" d="M 252.5,224.5 C 253.817,227.428 255.15,230.428 256.5,233.5C 255.604,234.506 254.938,234.506 254.5,233.5C 252.808,231.795 251.475,229.795 250.5,227.5C 251.117,227.611 251.617,227.944 252,228.5C 252.49,227.207 252.657,225.873 252.5,224.5 Z"/></g>
<g><path style="opacity:1" fill="#a5a5a5" d="M 259.5,220.5 C 259.216,222.415 259.549,224.081 260.5,225.5C 261.484,227.598 261.151,229.598 259.5,231.5C 259.167,231.5 258.833,231.5 258.5,231.5C 258.409,227.787 258.743,224.121 259.5,220.5 Z"/></g>
<g><path style="opacity:1" fill="#484848" d="M 168.5,235.5 C 176.178,232.326 183.845,229.16 191.5,226C 184.483,230.845 176.816,234.012 168.5,235.5 Z"/></g>
<g><path style="opacity:1" fill="#5d5d5d" d="M 245.5,233.5 C 245.5,233.833 245.5,234.167 245.5,234.5C 230.894,232.901 216.561,234.234 202.5,238.5C 209.014,235.287 216.014,233.453 223.5,233C 230.882,232.237 238.216,232.403 245.5,233.5 Z"/></g>
<g><path style="opacity:1" fill="#444444" d="M 168.5,235.5 C 165.635,236.783 162.635,236.783 159.5,235.5C 158.537,235.97 158.537,236.637 159.5,237.5C 154.302,234.814 150.802,230.814 149,225.5C 153.821,232.16 160.321,235.494 168.5,235.5 Z"/></g>
<g><path style="opacity:1" fill="#3b3b3b" d="M 273.5,230.5 C 273.389,231.117 273.056,231.617 272.5,232C 283.772,230.2 293.106,233.533 300.5,242C 300.167,242.167 299.833,242.333 299.5,242.5C 291.668,236.612 283.001,235.112 273.5,238C 278.243,238.635 282.576,240.135 286.5,242.5C 280.809,241.16 275.142,239.66 269.5,238C 271.392,237.027 273.392,236.36 275.5,236C 280.167,235.667 284.833,235.333 289.5,235C 286.425,233.993 283.258,233.493 280,233.5C 275.067,233.855 270.234,234.355 265.5,235C 267.817,232.843 270.484,231.343 273.5,230.5 Z"/></g>
<g><path style="opacity:1" fill="#393939" d="M 202.5,238.5 C 193.103,244.387 182.77,247.387 171.5,247.5C 170.354,246.855 169.354,246.022 168.5,245C 172.425,245.518 176.425,245.518 180.5,245C 188.077,243.529 195.41,241.362 202.5,238.5 Z"/></g>
<g><path style="opacity:1" fill="#5f5f5f" d="M 240.5,237.5 C 245.349,238.166 250.349,238.833 255.5,239.5C 255.746,240.773 255.746,241.94 255.5,243C 253.527,243.495 251.527,243.662 249.5,243.5C 247.034,242.366 244.367,242.199 241.5,243C 237.996,244.254 234.663,245.754 231.5,247.5C 233.578,244.949 236.244,243.116 239.5,242C 238.552,241.517 237.552,241.351 236.5,241.5C 237.263,240.732 238.263,240.232 239.5,240C 234.586,239.156 234.92,238.322 240.5,237.5 Z"/></g>
<g><path style="opacity:1" fill="#585858" d="M 230.5,239.5 C 231.873,239.343 233.207,239.51 234.5,240C 231.57,241.318 228.57,241.985 225.5,242C 227.315,241.243 228.981,240.41 230.5,239.5 Z"/></g>
<g><path style="opacity:1" fill="#707070" d="M 159.5,237.5 C 162.479,238.654 165.479,239.82 168.5,241C 174.629,241.654 180.629,241.321 186.5,240C 176.799,245.264 167.799,244.431 159.5,237.5 Z"/></g>
<g><path style="opacity:1" fill="#f1f1f1" d="M 236.5,241.5 C 237.552,241.351 238.552,241.517 239.5,242C 236.244,243.116 233.578,244.949 231.5,247.5C 234.663,245.754 237.996,244.254 241.5,243C 244.367,242.199 247.034,242.366 249.5,243.5C 244.379,243.42 240.379,245.42 237.5,249.5C 231.558,253.773 226.224,258.773 221.5,264.5C 214.585,268.417 207.252,269.417 199.5,267.5C 203.42,266.538 206.753,264.538 209.5,261.5C 213.1,259.57 216.1,256.903 218.5,253.5C 221.427,252.243 223.761,250.243 225.5,247.5C 229.335,245.75 233.001,243.75 236.5,241.5 Z"/></g>
<g><path style="opacity:1" fill="#404040" d="M 220.5,243.5 C 224.339,243.612 224.339,244.279 220.5,245.5C 219.537,245.03 219.537,244.363 220.5,243.5 Z"/></g>
<g><path style="opacity:1" fill="#5f5f5f" d="M 236.5,241.5 C 233.001,243.75 229.335,245.75 225.5,247.5C 228.4,244.214 232.067,242.214 236.5,241.5 Z"/></g>
<g><path style="opacity:1" fill="#484848" d="M 286.5,242.5 C 290.837,243.163 293.837,245.496 295.5,249.5C 292.965,248.651 290.465,247.651 288,246.5C 286.316,246.683 286.15,247.35 287.5,248.5C 279.855,246.079 280.522,244.912 289.5,245C 288.429,244.148 287.429,243.315 286.5,242.5 Z"/></g>
<g><path style="opacity:1" fill="#626262" d="M 257.5,244.5 C 259.482,244.995 261.482,245.495 263.5,246C 262.167,246.333 260.833,246.667 259.5,247C 261.058,247.21 262.391,247.71 263.5,248.5C 259.452,248.395 255.452,248.728 251.5,249.5C 251.918,248.778 252.584,248.278 253.5,248C 252.5,247.667 251.5,247.333 250.5,247C 253.004,246.302 255.337,245.469 257.5,244.5 Z"/></g>
<g><path style="opacity:1" fill="#686868" d="M 274.5,250.5 C 273.5,250.167 272.833,249.5 272.5,248.5C 273.967,248.106 275.467,247.773 277,247.5C 284.329,249.16 284.329,249.493 277,248.5C 275.699,248.639 274.866,249.305 274.5,250.5 Z"/></g>
<g><path style="opacity:1" fill="#383838" d="M 215.5,246.5 C 217.379,246.393 217.712,246.893 216.5,248C 211.698,249.94 211.365,249.44 215.5,246.5 Z"/></g>
<g><path style="opacity:1" fill="#262626" d="M 231.5,247.5 C 230.833,248.833 229.833,249.833 228.5,250.5C 228.5,248.5 229.5,247.5 231.5,247.5 Z"/></g>
<g><path style="opacity:1" fill="#eeeeee" d="M 263.5,248.5 C 265.698,248.12 267.365,248.787 268.5,250.5C 263.099,249.966 258.099,251.133 253.5,254C 251.859,255.129 250.859,256.629 250.5,258.5C 250.672,259.492 250.338,260.158 249.5,260.5C 248.778,260.918 248.278,261.584 248,262.5C 247.341,259.112 247.508,255.779 248.5,252.5C 249.833,251.833 250.833,250.833 251.5,249.5C 255.452,248.728 259.452,248.395 263.5,248.5 Z"/></g>
<g><path style="opacity:1" fill="#3d3d3d" d="M 182.5,253.5 C 185.083,252.776 187.749,251.943 190.5,251C 189.584,250.722 188.918,250.222 188.5,249.5C 192.008,248.496 195.174,246.829 198,244.5C 195.899,250.019 191.732,253.352 185.5,254.5C 184.416,254.315 183.416,253.982 182.5,253.5 Z"/></g>
<g><path style="opacity:1" fill="#828282" d="M 188.5,249.5 C 188.918,250.222 189.584,250.722 190.5,251C 187.749,251.943 185.083,252.776 182.5,253.5C 171.708,248.387 172.208,247.387 184,250.5C 185.592,250.395 187.092,250.061 188.5,249.5 Z"/></g>
<g><path style="opacity:1" fill="#3d3d3d" d="M 251.5,249.5 C 250.833,250.833 249.833,251.833 248.5,252.5C 248.5,250.5 249.5,249.5 251.5,249.5 Z"/></g>
<g><path style="opacity:1" fill="#6e6e6e" d="M 295.5,249.5 C 297.085,250.002 297.585,251.002 297,252.5C 295.961,251.756 295.461,250.756 295.5,249.5 Z"/></g>
<g><path style="opacity:1" fill="#696969" d="M 225.5,247.5 C 223.761,250.243 221.427,252.243 218.5,253.5C 220.239,250.757 222.573,248.757 225.5,247.5 Z"/></g>
<g><path style="opacity:1" fill="#323232" d="M 243.5,253.5 C 244.148,250.677 245.814,249.177 248.5,249C 246.963,250.707 245.296,252.207 243.5,253.5 Z"/></g>
<g><path style="opacity:1" fill="#545454" d="M 268.5,250.5 C 268.938,250.435 269.272,250.601 269.5,251C 268.584,251.278 267.918,251.778 267.5,252.5C 261.435,254.964 259.435,259.297 261.5,265.5C 258.516,260.898 259.182,256.732 263.5,253C 258.264,252.616 253.931,254.449 250.5,258.5C 250.859,256.629 251.859,255.129 253.5,254C 258.099,251.133 263.099,249.966 268.5,250.5 Z"/></g>
<g><path style="opacity:1" fill="#444444" d="M 205.5,251.5 C 206.552,251.351 207.552,251.517 208.5,252C 202.168,255.092 195.502,256.092 188.5,255C 194.477,254.676 200.144,253.509 205.5,251.5 Z"/></g>
<g><path style="opacity:1" fill="#efefef" d="M 267.5,252.5 C 270.226,252.264 272.559,253.097 274.5,255C 271.555,255.139 269.221,256.306 267.5,258.5C 263.823,261.308 263.49,264.642 266.5,268.5C 265.767,269.087 264.767,269.087 263.5,268.5C 263.573,266.973 262.906,265.973 261.5,265.5C 259.435,259.297 261.435,254.964 267.5,252.5 Z"/></g>
<g><path style="opacity:1" fill="#676767" d="M 287.5,248.5 C 289.017,248.511 290.184,249.177 291,250.5C 292.914,253.298 293.914,256.298 294,259.5C 290.531,254.352 285.698,252.352 279.5,253.5C 280.374,252.475 281.541,251.808 283,251.5C 285.196,252.09 287.362,252.757 289.5,253.5C 289.833,253.167 290.167,252.833 290.5,252.5C 289.476,251.148 288.476,249.815 287.5,248.5 Z"/></g>
<g><path style="opacity:1" fill="#505050" d="M 218.5,253.5 C 216.1,256.903 213.1,259.57 209.5,261.5C 211.9,258.097 214.9,255.43 218.5,253.5 Z"/></g>
<g><path style="opacity:1" fill="#727272" d="M 228.5,250.5 C 226.443,254.067 223.777,257.234 220.5,260C 219.833,260.667 219.167,260.667 218.5,260C 221.703,256.629 225.036,253.462 228.5,250.5 Z"/></g>
<g><path style="opacity:1" fill="#434343" d="M 237.5,249.5 C 232.776,255.227 227.442,260.227 221.5,264.5C 226.224,258.773 231.558,253.773 237.5,249.5 Z"/></g>
<g><path style="opacity:1" fill="#505050" d="M 248.5,252.5 C 247.508,255.779 247.341,259.112 248,262.5C 248.278,261.584 248.778,260.918 249.5,260.5C 248.401,273.433 247.067,273.1 245.5,259.5C 245.555,256.64 246.555,254.307 248.5,252.5 Z"/></g>
<g><path style="opacity:1" fill="#323232" d="M 209.5,261.5 C 206.753,264.538 203.42,266.538 199.5,267.5C 198.078,267.291 196.745,266.791 195.5,266C 200.579,265.584 205.245,264.084 209.5,261.5 Z"/></g>
<g><path style="opacity:1" fill="#484848" d="M 261.5,265.5 C 262.906,265.973 263.573,266.973 263.5,268.5C 262.094,268.027 261.427,267.027 261.5,265.5 Z"/></g>
<g><path style="opacity:1" fill="#616161" d="M 267.5,258.5 C 265.485,264.228 266.818,269.061 271.5,273C 267.855,273.342 265.189,271.842 263.5,268.5C 264.767,269.087 265.767,269.087 266.5,268.5C 263.49,264.642 263.823,261.308 267.5,258.5 Z"/></g>
<g><path style="opacity:1" fill="#3e3e3e" d="M 221.5,264.5 C 219.351,266.746 216.684,268.246 213.5,269C 209.5,269.667 205.5,269.667 201.5,269C 200.584,268.722 199.918,268.222 199.5,267.5C 207.252,269.417 214.585,268.417 221.5,264.5 Z"/></g>
<g><path style="opacity:1" fill="#5d5d5d" d="M 243.5,253.5 C 242.066,260.026 240.899,266.693 240,273.5C 238.95,276.24 237.117,277.74 234.5,278C 236.694,270.677 238.194,263.177 239,255.5C 239.561,252.71 240.894,250.377 243,248.5C 242.255,250.699 241.421,253.033 240.5,255.5C 240.667,256.167 240.833,256.833 241,257.5C 241.608,255.934 242.442,254.6 243.5,253.5 Z"/></g>
<g><path style="opacity:1" fill="#e9e9e9" d="M 238.5,266.5 C 239.643,269.068 239.476,271.735 238,274.5C 237.825,271.843 237.992,269.176 238.5,266.5 Z"/></g>
</svg>
